solid OpenSCAD_Model
  facet normal -0.978148 -0.207912 0
    outer loop
      vertex 5 0 0
      vertex 4.56773 2.03368 3
      vertex 4.56773 2.03368 0
    endloop
  endfacet
  facet normal -0.978148 -0.207912 0
    outer loop
      vertex 4.56773 2.03368 3
      vertex 5 0 0
      vertex 5 0 3
    endloop
  endfacet
  facet normal 1 -0 0
    outer loop
      vertex -4.89074 -1.03956 3
      vertex -4.89074 1.03956 0
      vertex -4.89074 1.03956 3
    endloop
  endfacet
  facet normal 1 0 0
    outer loop
      vertex -4.89074 1.03956 0
      vertex -4.89074 -1.03956 3
      vertex -4.89074 -1.03956 0
    endloop
  endfacet
  facet normal 0.309017 -0.951057 0
    outer loop
      vertex -2.5 4.33013 0
      vertex -0.522642 4.97261 3
      vertex -2.5 4.33013 3
    endloop
  endfacet
  facet normal 0.309017 -0.951057 0
    outer loop
      vertex -0.522642 4.97261 3
      vertex -2.5 4.33013 0
      vertex -0.522642 4.97261 0
    endloop
  endfacet
  facet normal 0.66913 -0.743145 0
    outer loop
      vertex -4.04508 2.93893 0
      vertex -2.5 4.33013 3
      vertex -4.04508 2.93893 3
    endloop
  endfacet
  facet normal 0.66913 -0.743145 0
    outer loop
      vertex -2.5 4.33013 3
      vertex -4.04508 2.93893 0
      vertex -2.5 4.33013 0
    endloop
  endfacet
  facet normal -0.104528 0.994522 0
    outer loop
      vertex 1.54508 -4.75528 0
      vertex -0.522642 -4.97261 3
      vertex 1.54508 -4.75528 3
    endloop
  endfacet
  facet normal -0.104528 0.994522 0
    outer loop
      vertex -0.522642 -4.97261 3
      vertex 1.54508 -4.75528 0
      vertex -0.522642 -4.97261 0
    endloop
  endfacet
  facet normal 0 0 -1
    outer loop
      vertex 24 -9.5 0
      vertex 19.25 8 0
      vertex 24 25.5 0
    endloop
  endfacet
  facet normal 0 0 -1
    outer loop
      vertex 24 -9.5 0
      vertex 19.0987 7.28821 0
      vertex 19.25 8 0
    endloop
  endfacet
  facet normal 0 0 -1
    outer loop
      vertex 24 -9.5 0
      vertex 18.671 6.6995 0
      vertex 19.0987 7.28821 0
    endloop
  endfacet
  facet normal 0 0 -1
    outer loop
      vertex 24 -9.5 0
      vertex 18.0408 6.33565 0
      vertex 18.671 6.6995 0
    endloop
  endfacet
  facet normal 0 0 -1
    outer loop
      vertex 24 -9.5 0
      vertex 17.3171 6.25959 0
      vertex 18.0408 6.33565 0
    endloop
  endfacet
  facet normal 0 0 -1
    outer loop
      vertex 4.56773 -2.03368 0
      vertex 17.3171 6.25959 0
      vertex 24 -9.5 0
    endloop
  endfacet
  facet normal 0 -0 -1
    outer loop
      vertex 5 0 0
      vertex 17.3171 6.25959 0
      vertex 4.56773 -2.03368 0
    endloop
  endfacet
  facet normal -0 0 -1
    outer loop
      vertex 16.0842 6.97138 0
      vertex 4.56773 2.03368 0
      vertex 15.7882 7.63615 0
    endloop
  endfacet
  facet normal 0 0 -1
    outer loop
      vertex 4.56773 2.03368 0
      vertex 16.0842 6.97138 0
      vertex 5 0 0
    endloop
  endfacet
  facet normal -0 0 -1
    outer loop
      vertex 17.3171 6.25959 0
      vertex 5 0 0
      vertex 16.625 6.48446 0
    endloop
  endfacet
  facet normal -0 0 -1
    outer loop
      vertex 16.625 6.48446 0
      vertex 5 0 0
      vertex 16.0842 6.97138 0
    endloop
  endfacet
  facet normal 0 0 -1
    outer loop
      vertex 24 -9.5 0
      vertex 3.34565 -3.71572 0
      vertex 4.56773 -2.03368 0
    endloop
  endfacet
  facet normal 0 0 -1
    outer loop
      vertex 24 -9.5 0
      vertex 1.54508 -4.75528 0
      vertex 3.34565 -3.71572 0
    endloop
  endfacet
  facet normal 0 0 -1
    outer loop
      vertex 24 -9.5 0
      vertex -0.522642 -4.97261 0
      vertex 1.54508 -4.75528 0
    endloop
  endfacet
  facet normal 0 0 -1
    outer loop
      vertex -16.329 6.6995 0
      vertex -4.89074 1.03956 0
      vertex -4.89074 -1.03956 0
    endloop
  endfacet
  facet normal 0 0 -1
    outer loop
      vertex -24 -9.5 0
      vertex -4.89074 -1.03956 0
      vertex -4.04508 -2.93893 0
    endloop
  endfacet
  facet normal 0 0 -1
    outer loop
      vertex -4.89074 1.03956 0
      vertex -15.9013 7.28821 0
      vertex -15.75 8 0
    endloop
  endfacet
  facet normal 0 0 -1
    outer loop
      vertex -24 -9.5 0
      vertex -4.04508 -2.93893 0
      vertex -2.5 -4.33013 0
    endloop
  endfacet
  facet normal 0 0 -1
    outer loop
      vertex -4.89074 1.03956 0
      vertex -16.329 6.6995 0
      vertex -15.9013 7.28821 0
    endloop
  endfacet
  facet normal 0 0 -1
    outer loop
      vertex -4.89074 -1.03956 0
      vertex -16.9592 6.33565 0
      vertex -16.329 6.6995 0
    endloop
  endfacet
  facet normal -0 0 -1
    outer loop
      vertex -4.89074 -1.03956 0
      vertex -24 -9.5 0
      vertex -16.9592 6.33565 0
    endloop
  endfacet
  facet normal 0 0 -1
    outer loop
      vertex -16.9592 6.33565 0
      vertex -24 -9.5 0
      vertex -17.6829 6.25959 0
    endloop
  endfacet
  facet normal -0 0 -1
    outer loop
      vertex -19.2118 7.63615 0
      vertex -24 -9.5 0
      vertex -19.2118 8.36384 0
    endloop
  endfacet
  facet normal -0 0 -1
    outer loop
      vertex -18.9158 6.97138 0
      vertex -24 -9.5 0
      vertex -19.2118 7.63615 0
    endloop
  endfacet
  facet normal -0 0 -1
    outer loop
      vertex -18.375 6.48446 0
      vertex -24 -9.5 0
      vertex -18.9158 6.97138 0
    endloop
  endfacet
  facet normal -0 0 -1
    outer loop
      vertex -17.6829 6.25959 0
      vertex -24 -9.5 0
      vertex -18.375 6.48446 0
    endloop
  endfacet
  facet normal -0 0 -1
    outer loop
      vertex -0.522642 -4.97261 0
      vertex -24 -9.5 0
      vertex -2.5 -4.33013 0
    endloop
  endfacet
  facet normal 0 0 -1
    outer loop
      vertex -24 -9.5 0
      vertex -0.522642 -4.97261 0
      vertex 24 -9.5 0
    endloop
  endfacet
  facet normal 0 0 -1
    outer loop
      vertex 19.0987 8.71179 0
      vertex 24 25.5 0
      vertex 19.25 8 0
    endloop
  endfacet
  facet normal 0 0 -1
    outer loop
      vertex 18.671 9.3005 0
      vertex 24 25.5 0
      vertex 19.0987 8.71179 0
    endloop
  endfacet
  facet normal 0 0 -1
    outer loop
      vertex 18.0408 9.66435 0
      vertex 24 25.5 0
      vertex 18.671 9.3005 0
    endloop
  endfacet
  facet normal 0 0 -1
    outer loop
      vertex 17.3171 9.74041 0
      vertex 24 25.5 0
      vertex 18.0408 9.66435 0
    endloop
  endfacet
  facet normal 0 0 -1
    outer loop
      vertex 16.625 9.51554 0
      vertex 24 25.5 0
      vertex 17.3171 9.74041 0
    endloop
  endfacet
  facet normal 0 0 -1
    outer loop
      vertex 1.54508 4.75528 0
      vertex 16.625 9.51554 0
      vertex 16.0842 9.02862 0
    endloop
  endfacet
  facet normal 0 0 -1
    outer loop
      vertex 3.34565 3.71572 0
      vertex 15.7882 7.63615 0
      vertex 4.56773 2.03368 0
    endloop
  endfacet
  facet normal -0 0 -1
    outer loop
      vertex 15.7882 7.63615 0
      vertex 3.34565 3.71572 0
      vertex 15.7882 8.36384 0
    endloop
  endfacet
  facet normal 0 0 -1
    outer loop
      vertex 1.54508 4.75528 0
      vertex 15.7882 8.36384 0
      vertex 3.34565 3.71572 0
    endloop
  endfacet
  facet normal -0 0 -1
    outer loop
      vertex 15.7882 8.36384 0
      vertex 1.54508 4.75528 0
      vertex 16.0842 9.02862 0
    endloop
  endfacet
  facet normal -0 0 -1
    outer loop
      vertex 16.625 9.51554 0
      vertex 1.54508 4.75528 0
      vertex 24 25.5 0
    endloop
  endfacet
  facet normal 0 0 -1
    outer loop
      vertex -0.522642 4.97261 0
      vertex 24 25.5 0
      vertex 1.54508 4.75528 0
    endloop
  endfacet
  facet normal 0 0 -1
    outer loop
      vertex -16.329 9.3005 0
      vertex -0.522642 4.97261 0
      vertex -2.5 4.33013 0
    endloop
  endfacet
  facet normal 0 0 -1
    outer loop
      vertex -15.75 8 0
      vertex -4.04508 2.93893 0
      vertex -4.89074 1.03956 0
    endloop
  endfacet
  facet normal 0 0 -1
    outer loop
      vertex -15.75 8 0
      vertex -2.5 4.33013 0
      vertex -4.04508 2.93893 0
    endloop
  endfacet
  facet normal 0 0 -1
    outer loop
      vertex -15.9013 8.71179 0
      vertex -2.5 4.33013 0
      vertex -15.75 8 0
    endloop
  endfacet
  facet normal 0 0 -1
    outer loop
      vertex -16.329 9.3005 0
      vertex -2.5 4.33013 0
      vertex -15.9013 8.71179 0
    endloop
  endfacet
  facet normal 0 0 -1
    outer loop
      vertex -0.522642 4.97261 0
      vertex -16.329 9.3005 0
      vertex -24 25.5 0
    endloop
  endfacet
  facet normal 0 0 -1
    outer loop
      vertex -24 25.5 0
      vertex -16.329 9.3005 0
      vertex -16.9592 9.66435 0
    endloop
  endfacet
  facet normal 0 0 -1
    outer loop
      vertex -24 25.5 0
      vertex -16.9592 9.66435 0
      vertex -17.6829 9.74041 0
    endloop
  endfacet
  facet normal 0 0 -1
    outer loop
      vertex -24 25.5 0
      vertex -17.6829 9.74041 0
      vertex -18.375 9.51554 0
    endloop
  endfacet
  facet normal 0 0 -1
    outer loop
      vertex -0.522642 4.97261 0
      vertex -24 25.5 0
      vertex 24 25.5 0
    endloop
  endfacet
  facet normal 0 0 -1
    outer loop
      vertex -18.9158 9.02862 0
      vertex -24 25.5 0
      vertex -18.375 9.51554 0
    endloop
  endfacet
  facet normal 0 0 -1
    outer loop
      vertex -19.2118 8.36384 0
      vertex -24 25.5 0
      vertex -18.9158 9.02862 0
    endloop
  endfacet
  facet normal 0 0 -1
    outer loop
      vertex -24 25.5 0
      vertex -19.2118 8.36384 0
      vertex -24 -9.5 0
    endloop
  endfacet
  facet normal -0.5 -0.866025 0
    outer loop
      vertex 1.54508 4.75528 0
      vertex 3.34565 3.71572 3
      vertex 1.54508 4.75528 3
    endloop
  endfacet
  facet normal -0.5 -0.866025 -0
    outer loop
      vertex 3.34565 3.71572 3
      vertex 1.54508 4.75528 0
      vertex 3.34565 3.71572 0
    endloop
  endfacet
  facet normal -0.809017 -0.587785 0
    outer loop
      vertex 4.56773 2.03368 0
      vertex 3.34565 3.71572 3
      vertex 3.34565 3.71572 0
    endloop
  endfacet
  facet normal -0.809017 -0.587785 0
    outer loop
      vertex 3.34565 3.71572 3
      vertex 4.56773 2.03368 0
      vertex 4.56773 2.03368 3
    endloop
  endfacet
  facet normal -0.104528 -0.994522 0
    outer loop
      vertex -0.522642 4.97261 0
      vertex 1.54508 4.75528 3
      vertex -0.522642 4.97261 3
    endloop
  endfacet
  facet normal -0.104528 -0.994522 -0
    outer loop
      vertex 1.54508 4.75528 3
      vertex -0.522642 4.97261 0
      vertex 1.54508 4.75528 0
    endloop
  endfacet
  facet normal 0.913546 -0.406737 0
    outer loop
      vertex -4.89074 1.03956 3
      vertex -4.04508 2.93893 0
      vertex -4.04508 2.93893 3
    endloop
  endfacet
  facet normal 0.913546 -0.406737 0
    outer loop
      vertex -4.04508 2.93893 0
      vertex -4.89074 1.03956 3
      vertex -4.89074 1.03956 0
    endloop
  endfacet
  facet normal -0.978148 0.207912 0
    outer loop
      vertex 4.56773 -2.03368 0
      vertex 5 0 3
      vertex 5 0 0
    endloop
  endfacet
  facet normal -0.978148 0.207912 0
    outer loop
      vertex 5 0 3
      vertex 4.56773 -2.03368 0
      vertex 4.56773 -2.03368 3
    endloop
  endfacet
  facet normal 0.309017 0.951057 -0
    outer loop
      vertex -0.522642 -4.97261 0
      vertex -2.5 -4.33013 3
      vertex -0.522642 -4.97261 3
    endloop
  endfacet
  facet normal 0.309017 0.951057 0
    outer loop
      vertex -2.5 -4.33013 3
      vertex -0.522642 -4.97261 0
      vertex -2.5 -4.33013 0
    endloop
  endfacet
  facet normal 0.913546 0.406737 0
    outer loop
      vertex -4.04508 -2.93893 3
      vertex -4.89074 -1.03956 0
      vertex -4.89074 -1.03956 3
    endloop
  endfacet
  facet normal 0.913546 0.406737 0
    outer loop
      vertex -4.89074 -1.03956 0
      vertex -4.04508 -2.93893 3
      vertex -4.04508 -2.93893 0
    endloop
  endfacet
  facet normal -0.809017 0.587785 0
    outer loop
      vertex 3.34565 -3.71572 0
      vertex 4.56773 -2.03368 3
      vertex 4.56773 -2.03368 0
    endloop
  endfacet
  facet normal -0.809017 0.587785 0
    outer loop
      vertex 4.56773 -2.03368 3
      vertex 3.34565 -3.71572 0
      vertex 3.34565 -3.71572 3
    endloop
  endfacet
  facet normal -0.5 0.866025 0
    outer loop
      vertex 3.34565 -3.71572 0
      vertex 1.54508 -4.75528 3
      vertex 3.34565 -3.71572 3
    endloop
  endfacet
  facet normal -0.5 0.866025 0
    outer loop
      vertex 1.54508 -4.75528 3
      vertex 3.34565 -3.71572 0
      vertex 1.54508 -4.75528 0
    endloop
  endfacet
  facet normal 0.669131 0.743145 -0
    outer loop
      vertex -2.5 -4.33013 0
      vertex -4.04508 -2.93893 3
      vertex -2.5 -4.33013 3
    endloop
  endfacet
  facet normal 0.669131 0.743145 0
    outer loop
      vertex -4.04508 -2.93893 3
      vertex -2.5 -4.33013 0
      vertex -4.04508 -2.93893 0
    endloop
  endfacet
  facet normal -0.978148 -0.207911 0
    outer loop
      vertex 19.25 8 0
      vertex 19.0987 8.71179 3
      vertex 19.0987 8.71179 0
    endloop
  endfacet
  facet normal -0.978148 -0.207911 0
    outer loop
      vertex 19.0987 8.71179 3
      vertex 19.25 8 0
      vertex 19.25 8 3
    endloop
  endfacet
  facet normal 1 -0 0
    outer loop
      vertex 15.7882 7.63615 3
      vertex 15.7882 8.36384 0
      vertex 15.7882 8.36384 3
    endloop
  endfacet
  facet normal 1 0 0
    outer loop
      vertex 15.7882 8.36384 0
      vertex 15.7882 7.63615 3
      vertex 15.7882 7.63615 0
    endloop
  endfacet
  facet normal -0.104528 -0.994522 0
    outer loop
      vertex 17.3171 9.74041 0
      vertex 18.0408 9.66435 3
      vertex 17.3171 9.74041 3
    endloop
  endfacet
  facet normal -0.104528 -0.994522 -0
    outer loop
      vertex 18.0408 9.66435 3
      vertex 17.3171 9.74041 0
      vertex 18.0408 9.66435 0
    endloop
  endfacet
  facet normal -0.809017 -0.587786 0
    outer loop
      vertex 19.0987 8.71179 0
      vertex 18.671 9.3005 3
      vertex 18.671 9.3005 0
    endloop
  endfacet
  facet normal -0.809017 -0.587786 0
    outer loop
      vertex 18.671 9.3005 3
      vertex 19.0987 8.71179 0
      vertex 19.0987 8.71179 3
    endloop
  endfacet
  facet normal -0.809017 0.587786 0
    outer loop
      vertex 18.671 6.6995 0
      vertex 19.0987 7.28821 3
      vertex 19.0987 7.28821 0
    endloop
  endfacet
  facet normal -0.809017 0.587786 0
    outer loop
      vertex 19.0987 7.28821 3
      vertex 18.671 6.6995 0
      vertex 18.671 6.6995 3
    endloop
  endfacet
  facet normal -0.5 0.866025 0
    outer loop
      vertex 18.671 6.6995 0
      vertex 18.0408 6.33565 3
      vertex 18.671 6.6995 3
    endloop
  endfacet
  facet normal -0.5 0.866025 0
    outer loop
      vertex 18.0408 6.33565 3
      vertex 18.671 6.6995 0
      vertex 18.0408 6.33565 0
    endloop
  endfacet
  facet normal -0.104528 0.994522 0
    outer loop
      vertex 18.0408 6.33565 0
      vertex 17.3171 6.25959 3
      vertex 18.0408 6.33565 3
    endloop
  endfacet
  facet normal -0.104528 0.994522 0
    outer loop
      vertex 17.3171 6.25959 3
      vertex 18.0408 6.33565 0
      vertex 17.3171 6.25959 0
    endloop
  endfacet
  facet normal 0.309017 -0.951056 0
    outer loop
      vertex 16.625 9.51554 0
      vertex 17.3171 9.74041 3
      vertex 16.625 9.51554 3
    endloop
  endfacet
  facet normal 0.309017 -0.951056 0
    outer loop
      vertex 17.3171 9.74041 3
      vertex 16.625 9.51554 0
      vertex 17.3171 9.74041 0
    endloop
  endfacet
  facet normal 0.669131 -0.743144 0
    outer loop
      vertex 16.0842 9.02862 0
      vertex 16.625 9.51554 3
      vertex 16.0842 9.02862 3
    endloop
  endfacet
  facet normal 0.669131 -0.743144 0
    outer loop
      vertex 16.625 9.51554 3
      vertex 16.0842 9.02862 0
      vertex 16.625 9.51554 0
    endloop
  endfacet
  facet normal 0.913545 0.406738 0
    outer loop
      vertex 16.0842 6.97138 3
      vertex 15.7882 7.63615 0
      vertex 15.7882 7.63615 3
    endloop
  endfacet
  facet normal 0.913545 0.406738 0
    outer loop
      vertex 15.7882 7.63615 0
      vertex 16.0842 6.97138 3
      vertex 16.0842 6.97138 0
    endloop
  endfacet
  facet normal 0.309017 0.951056 -0
    outer loop
      vertex 17.3171 6.25959 0
      vertex 16.625 6.48446 3
      vertex 17.3171 6.25959 3
    endloop
  endfacet
  facet normal 0.309017 0.951056 0
    outer loop
      vertex 16.625 6.48446 3
      vertex 17.3171 6.25959 0
      vertex 16.625 6.48446 0
    endloop
  endfacet
  facet normal 0.669131 0.743144 -0
    outer loop
      vertex 16.625 6.48446 0
      vertex 16.0842 6.97138 3
      vertex 16.625 6.48446 3
    endloop
  endfacet
  facet normal 0.669131 0.743144 0
    outer loop
      vertex 16.0842 6.97138 3
      vertex 16.625 6.48446 0
      vertex 16.0842 6.97138 0
    endloop
  endfacet
  facet normal -0.5 -0.866025 0
    outer loop
      vertex 18.0408 9.66435 0
      vertex 18.671 9.3005 3
      vertex 18.0408 9.66435 3
    endloop
  endfacet
  facet normal -0.5 -0.866025 -0
    outer loop
      vertex 18.671 9.3005 3
      vertex 18.0408 9.66435 0
      vertex 18.671 9.3005 0
    endloop
  endfacet
  facet normal 0.913545 -0.406738 0
    outer loop
      vertex 15.7882 8.36384 3
      vertex 16.0842 9.02862 0
      vertex 16.0842 9.02862 3
    endloop
  endfacet
  facet normal 0.913545 -0.406738 0
    outer loop
      vertex 16.0842 9.02862 0
      vertex 15.7882 8.36384 3
      vertex 15.7882 8.36384 0
    endloop
  endfacet
  facet normal -0.978148 0.207911 0
    outer loop
      vertex 19.0987 7.28821 0
      vertex 19.25 8 3
      vertex 19.25 8 0
    endloop
  endfacet
  facet normal -0.978148 0.207911 0
    outer loop
      vertex 19.25 8 3
      vertex 19.0987 7.28821 0
      vertex 19.0987 7.28821 3
    endloop
  endfacet
  facet normal -0.978148 -0.207911 0
    outer loop
      vertex -15.75 8 0
      vertex -15.9013 8.71179 3
      vertex -15.9013 8.71179 0
    endloop
  endfacet
  facet normal -0.978148 -0.207911 0
    outer loop
      vertex -15.9013 8.71179 3
      vertex -15.75 8 0
      vertex -15.75 8 3
    endloop
  endfacet
  facet normal 1 -0 0
    outer loop
      vertex -19.2118 7.63615 3
      vertex -19.2118 8.36384 0
      vertex -19.2118 8.36384 3
    endloop
  endfacet
  facet normal 1 0 0
    outer loop
      vertex -19.2118 8.36384 0
      vertex -19.2118 7.63615 3
      vertex -19.2118 7.63615 0
    endloop
  endfacet
  facet normal -0.104528 -0.994522 0
    outer loop
      vertex -17.6829 9.74041 0
      vertex -16.9592 9.66435 3
      vertex -17.6829 9.74041 3
    endloop
  endfacet
  facet normal -0.104528 -0.994522 -0
    outer loop
      vertex -16.9592 9.66435 3
      vertex -17.6829 9.74041 0
      vertex -16.9592 9.66435 0
    endloop
  endfacet
  facet normal -0.809017 0.587786 0
    outer loop
      vertex -16.329 6.6995 0
      vertex -15.9013 7.28821 3
      vertex -15.9013 7.28821 0
    endloop
  endfacet
  facet normal -0.809017 0.587786 0
    outer loop
      vertex -15.9013 7.28821 3
      vertex -16.329 6.6995 0
      vertex -16.329 6.6995 3
    endloop
  endfacet
  facet normal -0.5 0.866025 0
    outer loop
      vertex -16.329 6.6995 0
      vertex -16.9592 6.33565 3
      vertex -16.329 6.6995 3
    endloop
  endfacet
  facet normal -0.5 0.866025 0
    outer loop
      vertex -16.9592 6.33565 3
      vertex -16.329 6.6995 0
      vertex -16.9592 6.33565 0
    endloop
  endfacet
  facet normal -0.104528 0.994522 0
    outer loop
      vertex -16.9592 6.33565 0
      vertex -17.6829 6.25959 3
      vertex -16.9592 6.33565 3
    endloop
  endfacet
  facet normal -0.104528 0.994522 0
    outer loop
      vertex -17.6829 6.25959 3
      vertex -16.9592 6.33565 0
      vertex -17.6829 6.25959 0
    endloop
  endfacet
  facet normal -0.5 -0.866025 0
    outer loop
      vertex -16.9592 9.66435 0
      vertex -16.329 9.3005 3
      vertex -16.9592 9.66435 3
    endloop
  endfacet
  facet normal -0.5 -0.866025 -0
    outer loop
      vertex -16.329 9.3005 3
      vertex -16.9592 9.66435 0
      vertex -16.329 9.3005 0
    endloop
  endfacet
  facet normal -0.809017 -0.587786 0
    outer loop
      vertex -15.9013 8.71179 0
      vertex -16.329 9.3005 3
      vertex -16.329 9.3005 0
    endloop
  endfacet
  facet normal -0.809017 -0.587786 0
    outer loop
      vertex -16.329 9.3005 3
      vertex -15.9013 8.71179 0
      vertex -15.9013 8.71179 3
    endloop
  endfacet
  facet normal 0.309017 -0.951057 0
    outer loop
      vertex -18.375 9.51554 0
      vertex -17.6829 9.74041 3
      vertex -18.375 9.51554 3
    endloop
  endfacet
  facet normal 0.309017 -0.951057 0
    outer loop
      vertex -17.6829 9.74041 3
      vertex -18.375 9.51554 0
      vertex -17.6829 9.74041 0
    endloop
  endfacet
  facet normal 0.669131 -0.743144 0
    outer loop
      vertex -18.9158 9.02862 0
      vertex -18.375 9.51554 3
      vertex -18.9158 9.02862 3
    endloop
  endfacet
  facet normal 0.669131 -0.743144 0
    outer loop
      vertex -18.375 9.51554 3
      vertex -18.9158 9.02862 0
      vertex -18.375 9.51554 0
    endloop
  endfacet
  facet normal 0.913545 -0.406737 0
    outer loop
      vertex -19.2118 8.36384 3
      vertex -18.9158 9.02862 0
      vertex -18.9158 9.02862 3
    endloop
  endfacet
  facet normal 0.913545 -0.406737 0
    outer loop
      vertex -18.9158 9.02862 0
      vertex -19.2118 8.36384 3
      vertex -19.2118 8.36384 0
    endloop
  endfacet
  facet normal 0.913545 0.406737 0
    outer loop
      vertex -18.9158 6.97138 3
      vertex -19.2118 7.63615 0
      vertex -19.2118 7.63615 3
    endloop
  endfacet
  facet normal 0.913545 0.406737 0
    outer loop
      vertex -19.2118 7.63615 0
      vertex -18.9158 6.97138 3
      vertex -18.9158 6.97138 0
    endloop
  endfacet
  facet normal 0.309017 0.951057 -0
    outer loop
      vertex -17.6829 6.25959 0
      vertex -18.375 6.48446 3
      vertex -17.6829 6.25959 3
    endloop
  endfacet
  facet normal 0.309017 0.951057 0
    outer loop
      vertex -18.375 6.48446 3
      vertex -17.6829 6.25959 0
      vertex -18.375 6.48446 0
    endloop
  endfacet
  facet normal 0.669131 0.743144 -0
    outer loop
      vertex -18.375 6.48446 0
      vertex -18.9158 6.97138 3
      vertex -18.375 6.48446 3
    endloop
  endfacet
  facet normal 0.669131 0.743144 0
    outer loop
      vertex -18.9158 6.97138 3
      vertex -18.375 6.48446 0
      vertex -18.9158 6.97138 0
    endloop
  endfacet
  facet normal -0.978148 0.207911 0
    outer loop
      vertex -15.9013 7.28821 0
      vertex -15.75 8 3
      vertex -15.75 8 0
    endloop
  endfacet
  facet normal -0.978148 0.207911 0
    outer loop
      vertex -15.75 8 3
      vertex -15.9013 7.28821 0
      vertex -15.9013 7.28821 3
    endloop
  endfacet
  facet normal -1 0 0
    outer loop
      vertex -24 25.5 0
      vertex -24 17 10
      vertex -24 25.5 15
    endloop
  endfacet
  facet normal -1 0 0
    outer loop
      vertex -24 25.5 0
      vertex -24 13.8333 10
      vertex -24 17 10
    endloop
  endfacet
  facet normal -1 0 0
    outer loop
      vertex -24 25.5 0
      vertex -24 -2.5 3
      vertex -24 13.8333 10
    endloop
  endfacet
  facet normal -1 0 0
    outer loop
      vertex -24 -9.5 0
      vertex -24 -2.5 3
      vertex -24 25.5 0
    endloop
  endfacet
  facet normal -1 -0 0
    outer loop
      vertex -24 -2.5 3
      vertex -24 -9.5 0
      vertex -24 -6.5 3
    endloop
  endfacet
  facet normal -1 0 0
    outer loop
      vertex -24 -9.5 23
      vertex -24 -6.5 3
      vertex -24 -9.5 0
    endloop
  endfacet
  facet normal -1 0 0
    outer loop
      vertex -24 -6.5 3
      vertex -24 -9.5 23
      vertex -24 -6.5 23
    endloop
  endfacet
  facet normal -1 0 0
    outer loop
      vertex -24 25.5 15
      vertex -24 17 10
      vertex -24 16.8309 11.2847
    endloop
  endfacet
  facet normal 0 0 0
    outer loop
      vertex 24 25.5 3
      vertex 24 21.3261 3
      vertex 24 -6.5 3
    endloop
  endfacet
  facet normal 0 0 1
    outer loop
      vertex 21 25.5 3
      vertex 19.25 8 3
      vertex 21 -6.5 3
    endloop
  endfacet
  facet normal 0 0 1
    outer loop
      vertex 21 25.5 3
      vertex 19.0987 8.71179 3
      vertex 19.25 8 3
    endloop
  endfacet
  facet normal 0 0 1
    outer loop
      vertex 21 25.5 3
      vertex 18.671 9.3005 3
      vertex 19.0987 8.71179 3
    endloop
  endfacet
  facet normal 0 0 1
    outer loop
      vertex 21 25.5 3
      vertex 18.0408 9.66435 3
      vertex 18.671 9.3005 3
    endloop
  endfacet
  facet normal 0 0 1
    outer loop
      vertex 21 25.5 3
      vertex 17.3171 9.74041 3
      vertex 18.0408 9.66435 3
    endloop
  endfacet
  facet normal 0 0 1
    outer loop
      vertex 21 25.5 3
      vertex 16.625 9.51554 3
      vertex 17.3171 9.74041 3
    endloop
  endfacet
  facet normal 0 0 1
    outer loop
      vertex 21 25.5 3
      vertex 16.0842 9.02862 3
      vertex 16.625 9.51554 3
    endloop
  endfacet
  facet normal 0 0 1
    outer loop
      vertex 1.54508 4.75528 3
      vertex 16.0842 9.02862 3
      vertex 21 25.5 3
    endloop
  endfacet
  facet normal 0 0 1
    outer loop
      vertex 3.34565 3.71572 3
      vertex 15.7882 7.63615 3
      vertex 15.7882 8.36384 3
    endloop
  endfacet
  facet normal 0 0 1
    outer loop
      vertex 16.0842 9.02862 3
      vertex 1.54508 4.75528 3
      vertex 15.7882 8.36384 3
    endloop
  endfacet
  facet normal 0 0 1
    outer loop
      vertex 15.7882 7.63615 3
      vertex 4.56773 2.03368 3
      vertex 5 0 3
    endloop
  endfacet
  facet normal 0 0 1
    outer loop
      vertex 15.7882 7.63615 3
      vertex 3.34565 3.71572 3
      vertex 4.56773 2.03368 3
    endloop
  endfacet
  facet normal 0 0 1
    outer loop
      vertex 15.7882 8.36384 3
      vertex 1.54508 4.75528 3
      vertex 3.34565 3.71572 3
    endloop
  endfacet
  facet normal 0 0 1
    outer loop
      vertex 21 25.5 3
      vertex -0.522642 4.97261 3
      vertex 1.54508 4.75528 3
    endloop
  endfacet
  facet normal -0 0 1
    outer loop
      vertex -21 25.5 3
      vertex -0.522642 4.97261 3
      vertex 21 25.5 3
    endloop
  endfacet
  facet normal -0 0 1
    outer loop
      vertex -21 21.3261 3
      vertex -0.522642 4.97261 3
      vertex -21 25.5 3
    endloop
  endfacet
  facet normal 0 0 1
    outer loop
      vertex -4.04508 2.93893 3
      vertex -15.9013 7.28821 3
      vertex -4.89074 1.03956 3
    endloop
  endfacet
  facet normal -0 0 1
    outer loop
      vertex -15.9013 7.28821 3
      vertex -4.04508 2.93893 3
      vertex -15.75 8 3
    endloop
  endfacet
  facet normal -0 -0 1
    outer loop
      vertex -16.329 9.3005 3
      vertex -0.522642 4.97261 3
      vertex -21 21.3261 3
    endloop
  endfacet
  facet normal 0 0 1
    outer loop
      vertex -2.5 4.33013 3
      vertex -15.75 8 3
      vertex -4.04508 2.93893 3
    endloop
  endfacet
  facet normal -0 -0 1
    outer loop
      vertex -15.75 8 3
      vertex -2.5 4.33013 3
      vertex -15.9013 8.71179 3
    endloop
  endfacet
  facet normal -0 -0 1
    outer loop
      vertex -15.9013 8.71179 3
      vertex -2.5 4.33013 3
      vertex -16.329 9.3005 3
    endloop
  endfacet
  facet normal 0 0 1
    outer loop
      vertex -16.329 9.3005 3
      vertex -21 21.3261 3
      vertex -16.9592 9.66435 3
    endloop
  endfacet
  facet normal 0 0 1
    outer loop
      vertex -16.9592 9.66435 3
      vertex -21 21.3261 3
      vertex -17.6829 9.74041 3
    endloop
  endfacet
  facet normal 0 0 1
    outer loop
      vertex -18.9158 9.02862 3
      vertex -21 21.3261 3
      vertex -19.2118 8.36384 3
    endloop
  endfacet
  facet normal 0 0 1
    outer loop
      vertex -18.375 9.51554 3
      vertex -21 21.3261 3
      vertex -18.9158 9.02862 3
    endloop
  endfacet
  facet normal 0 0 1
    outer loop
      vertex -17.6829 9.74041 3
      vertex -21 21.3261 3
      vertex -18.375 9.51554 3
    endloop
  endfacet
  facet normal 0 0 1
    outer loop
      vertex -0.522642 4.97261 3
      vertex -16.329 9.3005 3
      vertex -2.5 4.33013 3
    endloop
  endfacet
  facet normal -0 0 1
    outer loop
      vertex 19.0987 7.28821 3
      vertex 21 -6.5 3
      vertex 19.25 8 3
    endloop
  endfacet
  facet normal -0 0 1
    outer loop
      vertex 18.671 6.6995 3
      vertex 21 -6.5 3
      vertex 19.0987 7.28821 3
    endloop
  endfacet
  facet normal -0 0 1
    outer loop
      vertex 18.0408 6.33565 3
      vertex 21 -6.5 3
      vertex 18.671 6.6995 3
    endloop
  endfacet
  facet normal -0 0 1
    outer loop
      vertex 17.3171 6.25959 3
      vertex 21 -6.5 3
      vertex 18.0408 6.33565 3
    endloop
  endfacet
  facet normal 0 0 1
    outer loop
      vertex 16.625 6.48446 3
      vertex 21 -6.5 3
      vertex 17.3171 6.25959 3
    endloop
  endfacet
  facet normal 0 0 1
    outer loop
      vertex 5 0 3
      vertex 16.625 6.48446 3
      vertex 16.0842 6.97138 3
    endloop
  endfacet
  facet normal 0 0 1
    outer loop
      vertex 5 0 3
      vertex 16.0842 6.97138 3
      vertex 15.7882 7.63615 3
    endloop
  endfacet
  facet normal 0 0 1
    outer loop
      vertex 16.625 6.48446 3
      vertex 5 0 3
      vertex 21 -6.5 3
    endloop
  endfacet
  facet normal -0 0 1
    outer loop
      vertex 4.56773 -2.03368 3
      vertex 21 -6.5 3
      vertex 5 0 3
    endloop
  endfacet
  facet normal -0 0 1
    outer loop
      vertex 3.34565 -3.71572 3
      vertex 21 -6.5 3
      vertex 4.56773 -2.03368 3
    endloop
  endfacet
  facet normal -0 0 1
    outer loop
      vertex 1.54508 -4.75528 3
      vertex 21 -6.5 3
      vertex 3.34565 -3.71572 3
    endloop
  endfacet
  facet normal -0 0 1
    outer loop
      vertex -0.522642 -4.97261 3
      vertex 21 -6.5 3
      vertex 1.54508 -4.75528 3
    endloop
  endfacet
  facet normal -0 0 1
    outer loop
      vertex -16.329 6.6995 3
      vertex -4.89074 1.03956 3
      vertex -15.9013 7.28821 3
    endloop
  endfacet
  facet normal 0 0 1
    outer loop
      vertex -4.89074 1.03956 3
      vertex -16.329 6.6995 3
      vertex -4.89074 -1.03956 3
    endloop
  endfacet
  facet normal -0 0 1
    outer loop
      vertex -16.9592 6.33565 3
      vertex -4.89074 -1.03956 3
      vertex -16.329 6.6995 3
    endloop
  endfacet
  facet normal 0 0 1
    outer loop
      vertex -21 -6.5 3
      vertex -4.89074 -1.03956 3
      vertex -16.9592 6.33565 3
    endloop
  endfacet
  facet normal 0 0 1
    outer loop
      vertex -4.89074 -1.03956 3
      vertex -21 -6.5 3
      vertex -4.04508 -2.93893 3
    endloop
  endfacet
  facet normal 0 0 1
    outer loop
      vertex -21 -6.5 3
      vertex -16.9592 6.33565 3
      vertex -17.6829 6.25959 3
    endloop
  endfacet
  facet normal 0 0 1
    outer loop
      vertex -21 -6.5 3
      vertex -17.6829 6.25959 3
      vertex -18.375 6.48446 3
    endloop
  endfacet
  facet normal 0 0 1
    outer loop
      vertex -19.2118 8.36384 3
      vertex -21 21.3261 3
      vertex -19.2118 7.63615 3
    endloop
  endfacet
  facet normal 0 0 1
    outer loop
      vertex -0.522642 -4.97261 3
      vertex -21 -6.5 3
      vertex 21 -6.5 3
    endloop
  endfacet
  facet normal 0 0 1
    outer loop
      vertex -2.5 -4.33013 3
      vertex -21 -6.5 3
      vertex -0.522642 -4.97261 3
    endloop
  endfacet
  facet normal 0 0 1
    outer loop
      vertex -4.04508 -2.93893 3
      vertex -21 -6.5 3
      vertex -2.5 -4.33013 3
    endloop
  endfacet
  facet normal 0 0 1
    outer loop
      vertex -18.9158 6.97138 3
      vertex -21 -6.5 3
      vertex -18.375 6.48446 3
    endloop
  endfacet
  facet normal 0 0 1
    outer loop
      vertex -19.2118 7.63615 3
      vertex -21 -6.5 3
      vertex -18.9158 6.97138 3
    endloop
  endfacet
  facet normal 0 0 1
    outer loop
      vertex -21 -6.5 3
      vertex -19.2118 7.63615 3
      vertex -21 21.3261 3
    endloop
  endfacet
  facet normal 1 0 0
    outer loop
      vertex 24 -6.5 23
      vertex 24 -9.5 23
      vertex 24 -6.5 3
    endloop
  endfacet
  facet normal 1 -0 0
    outer loop
      vertex 24 -6.5 3
      vertex 24 25.5 0
      vertex 24 25.5 3
    endloop
  endfacet
  facet normal 1 0 0
    outer loop
      vertex 24 -6.5 3
      vertex 24 -9.5 0
      vertex 24 25.5 0
    endloop
  endfacet
  facet normal 1 0 0
    outer loop
      vertex 24 -9.5 0
      vertex 24 -6.5 3
      vertex 24 -9.5 23
    endloop
  endfacet
  facet normal 0 1 -0
    outer loop
      vertex 24 25.5 3
      vertex 21 25.5 15
      vertex 24 25.5 15
    endloop
  endfacet
  facet normal 0 1 0
    outer loop
      vertex 24 25.5 3
      vertex 21 25.5 3
      vertex 21 25.5 15
    endloop
  endfacet
  facet normal 0 1 -0
    outer loop
      vertex 24 25.5 0
      vertex 21 25.5 3
      vertex 24 25.5 3
    endloop
  endfacet
  facet normal 0 1 0
    outer loop
      vertex 21 25.5 3
      vertex 24 25.5 0
      vertex -21 25.5 3
    endloop
  endfacet
  facet normal 0 1 -0
    outer loop
      vertex -21 25.5 3
      vertex -24 25.5 15
      vertex -21 25.5 15
    endloop
  endfacet
  facet normal 0 1 0
    outer loop
      vertex -21 25.5 3
      vertex -24 25.5 0
      vertex -24 25.5 15
    endloop
  endfacet
  facet normal 0 1 0
    outer loop
      vertex -24 25.5 0
      vertex -21 25.5 3
      vertex 24 25.5 0
    endloop
  endfacet
  facet normal 0 -1 0
    outer loop
      vertex -24 -9.5 0
      vertex 24 -9.5 23
      vertex -24 -9.5 23
    endloop
  endfacet
  facet normal 0 -1 -0
    outer loop
      vertex 24 -9.5 23
      vertex -24 -9.5 0
      vertex 24 -9.5 0
    endloop
  endfacet
  facet normal 2.79446e-07 0.130527 0.991445
    outer loop
      vertex -28.0359 10.3745 17.3849
      vertex -24 9.5 17.5
      vertex -24 11.4411 17.2444
    endloop
  endfacet
  facet normal 0 0.130526 0.991445
    outer loop
      vertex -24 9.5 17.5
      vertex -28.0359 10.3745 17.3849
      vertex -27.85 9.5 17.5
    endloop
  endfacet
  facet normal 1.01512e-07 0.130528 0.991445
    outer loop
      vertex -24 11.4411 17.2444
      vertex -28.5614 11.0978 17.2896
      vertex -28.0359 10.3745 17.3849
    endloop
  endfacet
  facet normal 0 0.130529 0.991444
    outer loop
      vertex -28.5614 11.0978 17.2896
      vertex -24 11.4411 17.2444
      vertex -29.1561 11.4411 17.2444
    endloop
  endfacet
  facet normal -0 0.130529 0.991444
    outer loop
      vertex -34 11.4411 17.2444
      vertex -31.075 11.362 17.2549
      vertex -30.8313 11.4411 17.2444
    endloop
  endfacet
  facet normal -3.93225e-09 0.130529 0.991445
    outer loop
      vertex -34 11.4411 17.2444
      vertex -31.7394 10.7637 17.3336
      vertex -31.075 11.362 17.2549
    endloop
  endfacet
  facet normal -5.01583e-07 0.130527 0.991445
    outer loop
      vertex -34 11.4411 17.2444
      vertex -32.103 9.94701 17.4412
      vertex -31.7394 10.7637 17.3336
    endloop
  endfacet
  facet normal -5.59482e-07 0.130527 0.991445
    outer loop
      vertex -34 9.5 17.5
      vertex -32.103 9.94701 17.4412
      vertex -34 11.4411 17.2444
    endloop
  endfacet
  facet normal 0 0.130525 0.991445
    outer loop
      vertex -32.103 9.94701 17.4412
      vertex -34 9.5 17.5
      vertex -32.103 9.5 17.5
    endloop
  endfacet
  facet normal 1.30712e-08 0.130527 -0.991445
    outer loop
      vertex -28.0359 10.3745 2.61513
      vertex -24 9.5 2.5
      vertex -27.85 9.50001 2.5
    endloop
  endfacet
  facet normal 0 0.124035 -0.992278
    outer loop
      vertex -27.85 9.50001 2.5
      vertex -24 9.5 2.5
      vertex -28.0359 9.5 2.5
    endloop
  endfacet
  facet normal -1.8041e-09 0.130527 -0.991445
    outer loop
      vertex -24 9.5 2.5
      vertex -28.0359 10.3745 2.61513
      vertex -24 11.4411 2.75556
    endloop
  endfacet
  facet normal -2.50453e-08 0.130527 -0.991445
    outer loop
      vertex -28.5614 11.0978 2.71035
      vertex -24 11.4411 2.75556
      vertex -28.0359 10.3745 2.61513
    endloop
  endfacet
  facet normal 0 0.130526 -0.991445
    outer loop
      vertex -24 11.4411 2.75556
      vertex -28.5614 11.0978 2.71035
      vertex -29.1561 11.4411 2.75556
    endloop
  endfacet
  facet normal 0 0.130527 -0.991445
    outer loop
      vertex -32.103 9.5 2.5
      vertex -34 9.5 2.5
      vertex -32.103 9.94701 2.55885
    endloop
  endfacet
  facet normal 5.37287e-08 0.130527 -0.991445
    outer loop
      vertex -34 11.4411 2.75556
      vertex -32.103 9.94701 2.55885
      vertex -34 9.5 2.5
    endloop
  endfacet
  facet normal -1.01085e-07 0.130526 -0.991445
    outer loop
      vertex -32.103 9.94701 2.55885
      vertex -34 11.4411 2.75556
      vertex -31.7394 10.7637 2.66637
    endloop
  endfacet
  facet normal 0 0.130526 -0.991445
    outer loop
      vertex -31.075 11.362 2.74513
      vertex -34 11.4411 2.75556
      vertex -30.8313 11.4411 2.75556
    endloop
  endfacet
  facet normal 2.25955e-08 0.130527 -0.991445
    outer loop
      vertex -31.7394 10.7637 2.66637
      vertex -34 11.4411 2.75556
      vertex -31.075 11.362 2.74513
    endloop
  endfacet
  facet normal 0 0.991444 0.130529
    outer loop
      vertex -24 16.8309 11.2847
      vertex -34 16.7444 11.9411
      vertex -24 16.7444 11.9411
    endloop
  endfacet
  facet normal -0 0.991445 0.130526
    outer loop
      vertex -34 17 10
      vertex -24 16.8309 11.2847
      vertex -24 17 10
    endloop
  endfacet
  facet normal -1.38503e-07 0.991445 0.130527
    outer loop
      vertex -24 16.8309 11.2847
      vertex -34 17 10
      vertex -34 16.7444 11.9411
    endloop
  endfacet
  facet normal 0 -0.608761 -0.793354
    outer loop
      vertex -34 4.1967 4.6967
      vertex -24 5.75 3.50481
      vertex -24 4.1967 4.6967
    endloop
  endfacet
  facet normal -0 -0.608761 -0.793354
    outer loop
      vertex -24 5.75 3.50481
      vertex -34 4.1967 4.6967
      vertex -34 5.75 3.50481
    endloop
  endfacet
  facet normal 1 0 0
    outer loop
      vertex -24 13.8333 10
      vertex -24 16.7444 11.9411
      vertex -24 15.9952 13.75
    endloop
  endfacet
  facet normal 1 0 0
    outer loop
      vertex -24 12.15 11.65
      vertex -24 15.9952 13.75
      vertex -24 14.8033 15.3033
    endloop
  endfacet
  facet normal 1 0 -0
    outer loop
      vertex -24 13.8333 10
      vertex -24 15.9952 13.75
      vertex -24 12.15 11.65
    endloop
  endfacet
  facet normal 1 0 0
    outer loop
      vertex -24 12.15 11.65
      vertex -24 14.8033 15.3033
      vertex -24 13.25 16.4952
    endloop
  endfacet
  facet normal 1 -0 0
    outer loop
      vertex -24 13.8333 10
      vertex -24 16.7444 8.05886
      vertex -24 17 10
    endloop
  endfacet
  facet normal 1 0 0
    outer loop
      vertex -24 16.7444 8.05886
      vertex -24 13.8333 10
      vertex -24 15.9952 6.25
    endloop
  endfacet
  facet normal 1 -0 0
    outer loop
      vertex -24 12.15 8.35
      vertex -24 15.9952 6.25
      vertex -24 13.8333 10
    endloop
  endfacet
  facet normal 1 0 0
    outer loop
      vertex -24 15.9952 6.25
      vertex -24 12.15 8.35
      vertex -24 14.8033 4.6967
    endloop
  endfacet
  facet normal 1 0 0
    outer loop
      vertex -24 16.7444 11.9411
      vertex -24 13.8333 10
      vertex -24 16.8309 11.2847
    endloop
  endfacet
  facet normal 1 0 0
    outer loop
      vertex -24 12.15 8.35
      vertex -24 13.8333 10
      vertex -24 12.15 11.65
    endloop
  endfacet
  facet normal 1 0 0
    outer loop
      vertex -24 11.4411 17.2444
      vertex -24 12.15 11.65
      vertex -24 13.25 16.4952
    endloop
  endfacet
  facet normal 1 0 0
    outer loop
      vertex -24 9.5 17.5
      vertex -24 12.15 11.65
      vertex -24 11.4411 17.2444
    endloop
  endfacet
  facet normal 1 0 0
    outer loop
      vertex -24 6.85 11.65
      vertex -24 9.5 17.5
      vertex -24 7.55886 17.2444
    endloop
  endfacet
  facet normal 1 0 0
    outer loop
      vertex -24 9.5 17.5
      vertex -24 6.85 11.65
      vertex -24 12.15 11.65
    endloop
  endfacet
  facet normal 1 -0 0
    outer loop
      vertex -24 2 10
      vertex -24 6.85 8.35
      vertex -24 6.85 11.65
    endloop
  endfacet
  facet normal 1 -0 0
    outer loop
      vertex -24 5.75 16.4952
      vertex -24 6.85 11.65
      vertex -24 7.55886 17.2444
    endloop
  endfacet
  facet normal 1 -0 0
    outer loop
      vertex -24 4.1967 15.3033
      vertex -24 6.85 11.65
      vertex -24 5.75 16.4952
    endloop
  endfacet
  facet normal 1 -0 0
    outer loop
      vertex -24 3.00481 13.75
      vertex -24 6.85 11.65
      vertex -24 4.1967 15.3033
    endloop
  endfacet
  facet normal 1 0 0
    outer loop
      vertex -24 6.85 8.35
      vertex -24 4.1967 4.6967
      vertex -24 5.75 3.50481
    endloop
  endfacet
  facet normal 1 -0 0
    outer loop
      vertex -24 2.25556 11.9411
      vertex -24 6.85 11.65
      vertex -24 3.00481 13.75
    endloop
  endfacet
  facet normal 1 0 0
    outer loop
      vertex -24 6.85 8.35
      vertex -24 3.00481 6.25
      vertex -24 4.1967 4.6967
    endloop
  endfacet
  facet normal 1 0 0
    outer loop
      vertex -24 2 10
      vertex -24 6.85 11.65
      vertex -24 2.25556 11.9411
    endloop
  endfacet
  facet normal 1 0 0
    outer loop
      vertex -24 6.85 8.35
      vertex -24 2.25556 8.05886
      vertex -24 3.00481 6.25
    endloop
  endfacet
  facet normal 1 0 0
    outer loop
      vertex -24 6.85 8.35
      vertex -24 2 10
      vertex -24 2.25556 8.05886
    endloop
  endfacet
  facet normal 1 0 0
    outer loop
      vertex -24 14.8033 4.6967
      vertex -24 12.15 8.35
      vertex -24 13.25 3.50481
    endloop
  endfacet
  facet normal 1 0 0
    outer loop
      vertex -24 12.15 8.35
      vertex -24 11.4411 2.75556
      vertex -24 13.25 3.50481
    endloop
  endfacet
  facet normal 1 0 0
    outer loop
      vertex -24 12.15 8.35
      vertex -24 9.5 2.5
      vertex -24 11.4411 2.75556
    endloop
  endfacet
  facet normal 1 -0 0
    outer loop
      vertex -24 6.85 8.35
      vertex -24 9.5 2.5
      vertex -24 12.15 8.35
    endloop
  endfacet
  facet normal 1 0 0
    outer loop
      vertex -24 9.5 2.5
      vertex -24 6.85 8.35
      vertex -24 7.55886 2.75556
    endloop
  endfacet
  facet normal 1 0 0
    outer loop
      vertex -24 7.55886 2.75556
      vertex -24 6.85 8.35
      vertex -24 5.75 3.50481
    endloop
  endfacet
  facet normal -0 0.608761 0.793354
    outer loop
      vertex -34 14.8033 15.3033
      vertex -24 13.25 16.4952
      vertex -24 14.8033 15.3033
    endloop
  endfacet
  facet normal 0 0.608761 0.793354
    outer loop
      vertex -24 13.25 16.4952
      vertex -34 14.8033 15.3033
      vertex -34 13.25 16.4952
    endloop
  endfacet
  facet normal 0 0.382683 0.92388
    outer loop
      vertex -24 13.25 16.4952
      vertex -29.1561 11.4411 17.2444
      vertex -24 11.4411 17.2444
    endloop
  endfacet
  facet normal 3.04691e-06 0.382676 0.923883
    outer loop
      vertex -24 13.25 16.4952
      vertex -29.3356 11.5448 17.2015
      vertex -29.1561 11.4411 17.2444
    endloop
  endfacet
  facet normal -8.68463e-07 0.382686 0.923878
    outer loop
      vertex -24 13.25 16.4952
      vertex -30.2247 11.6382 17.1628
      vertex -29.3356 11.5448 17.2015
    endloop
  endfacet
  facet normal -0 0.382683 0.92388
    outer loop
      vertex -34 13.25 16.4952
      vertex -30.2247 11.6382 17.1628
      vertex -24 13.25 16.4952
    endloop
  endfacet
  facet normal -3.58816e-07 0.382683 0.92388
    outer loop
      vertex -34 13.25 16.4952
      vertex -30.8313 11.4411 17.2444
      vertex -30.2247 11.6382 17.1628
    endloop
  endfacet
  facet normal 0 0.382683 0.92388
    outer loop
      vertex -30.8313 11.4411 17.2444
      vertex -34 13.25 16.4952
      vertex -34 11.4411 17.2444
    endloop
  endfacet
  facet normal 0 0.793354 0.608761
    outer loop
      vertex -24 15.9952 13.75
      vertex -34 14.8033 15.3033
      vertex -24 14.8033 15.3033
    endloop
  endfacet
  facet normal 0 0.793354 0.608761
    outer loop
      vertex -34 14.8033 15.3033
      vertex -24 15.9952 13.75
      vertex -34 15.9952 13.75
    endloop
  endfacet
  facet normal 0 0.793354 -0.608761
    outer loop
      vertex -24 14.8033 4.6967
      vertex -34 15.9952 6.25
      vertex -24 15.9952 6.25
    endloop
  endfacet
  facet normal 0 0.793354 -0.608761
    outer loop
      vertex -34 15.9952 6.25
      vertex -24 14.8033 4.6967
      vertex -34 14.8033 4.6967
    endloop
  endfacet
  facet normal -1 0 0
    outer loop
      vertex -34 12.15 8.35
      vertex -34 17 10
      vertex -34 16.7444 8.05886
    endloop
  endfacet
  facet normal -1 0 0
    outer loop
      vertex -34 12.15 8.35
      vertex -34 16.7444 8.05886
      vertex -34 15.9952 6.25
    endloop
  endfacet
  facet normal -1 0 0
    outer loop
      vertex -34 12.15 11.65
      vertex -34 17 10
      vertex -34 12.15 8.35
    endloop
  endfacet
  facet normal -1 0 0
    outer loop
      vertex -34 12.15 8.35
      vertex -34 15.9952 6.25
      vertex -34 14.8033 4.6967
    endloop
  endfacet
  facet normal -1 0 0
    outer loop
      vertex -34 17 10
      vertex -34 12.15 11.65
      vertex -34 16.7444 11.9411
    endloop
  endfacet
  facet normal -1 0 0
    outer loop
      vertex -34 12.15 8.35
      vertex -34 14.8033 4.6967
      vertex -34 13.25 3.50481
    endloop
  endfacet
  facet normal -1 -0 0
    outer loop
      vertex -34 16.7444 11.9411
      vertex -34 12.15 11.65
      vertex -34 15.9952 13.75
    endloop
  endfacet
  facet normal -1 -0 0
    outer loop
      vertex -34 15.9952 13.75
      vertex -34 12.15 11.65
      vertex -34 14.8033 15.3033
    endloop
  endfacet
  facet normal -1 0 0
    outer loop
      vertex -34 11.4411 2.75556
      vertex -34 12.15 8.35
      vertex -34 13.25 3.50481
    endloop
  endfacet
  facet normal -1 0 0
    outer loop
      vertex -34 9.5 2.5
      vertex -34 12.15 8.35
      vertex -34 11.4411 2.75556
    endloop
  endfacet
  facet normal -1 0 0
    outer loop
      vertex -34 6.85 8.35
      vertex -34 9.5 2.5
      vertex -34 7.55886 2.75556
    endloop
  endfacet
  facet normal -1 0 0
    outer loop
      vertex -34 9.5 2.5
      vertex -34 6.85 8.35
      vertex -34 12.15 8.35
    endloop
  endfacet
  facet normal -1 0 0
    outer loop
      vertex -34 4.1967 4.6967
      vertex -34 6.85 8.35
      vertex -34 5.75 3.50481
    endloop
  endfacet
  facet normal -1 0 0
    outer loop
      vertex -34 5.75 3.50481
      vertex -34 6.85 8.35
      vertex -34 7.55886 2.75556
    endloop
  endfacet
  facet normal -1 -0 0
    outer loop
      vertex -34 14.8033 15.3033
      vertex -34 12.15 11.65
      vertex -34 13.25 16.4952
    endloop
  endfacet
  facet normal -1 0 0
    outer loop
      vertex -34 12.15 11.65
      vertex -34 11.4411 17.2444
      vertex -34 13.25 16.4952
    endloop
  endfacet
  facet normal -1 0 0
    outer loop
      vertex -34 12.15 11.65
      vertex -34 9.5 17.5
      vertex -34 11.4411 17.2444
    endloop
  endfacet
  facet normal -1 0 0
    outer loop
      vertex -34 6.85 11.65
      vertex -34 9.5 17.5
      vertex -34 12.15 11.65
    endloop
  endfacet
  facet normal -1 0 0
    outer loop
      vertex -34 9.5 17.5
      vertex -34 6.85 11.65
      vertex -34 7.55886 17.2444
    endloop
  endfacet
  facet normal -1 0 0
    outer loop
      vertex -34 3.00481 6.25
      vertex -34 6.85 8.35
      vertex -34 4.1967 4.6967
    endloop
  endfacet
  facet normal -1 0 0
    outer loop
      vertex -34 6.85 11.65
      vertex -34 5.75 16.4952
      vertex -34 7.55886 17.2444
    endloop
  endfacet
  facet normal -1 0 0
    outer loop
      vertex -34 2.25556 8.05886
      vertex -34 6.85 8.35
      vertex -34 3.00481 6.25
    endloop
  endfacet
  facet normal -1 0 0
    outer loop
      vertex -34 6.85 11.65
      vertex -34 4.1967 15.3033
      vertex -34 5.75 16.4952
    endloop
  endfacet
  facet normal -1 0 0
    outer loop
      vertex -34 2 10
      vertex -34 6.85 8.35
      vertex -34 2.25556 8.05886
    endloop
  endfacet
  facet normal -1 0 0
    outer loop
      vertex -34 6.85 11.65
      vertex -34 3.00481 13.75
      vertex -34 4.1967 15.3033
    endloop
  endfacet
  facet normal -1 0 0
    outer loop
      vertex -34 6.85 8.35
      vertex -34 2 10
      vertex -34 6.85 11.65
    endloop
  endfacet
  facet normal -1 0 0
    outer loop
      vertex -34 6.85 11.65
      vertex -34 2.25556 11.9411
      vertex -34 3.00481 13.75
    endloop
  endfacet
  facet normal -1 -0 0
    outer loop
      vertex -34 6.85 11.65
      vertex -34 2 10
      vertex -34 2.25556 11.9411
    endloop
  endfacet
  facet normal 0 0.991445 -0.130527
    outer loop
      vertex -24 16.7444 8.05886
      vertex -34 17 10
      vertex -24 17 10
    endloop
  endfacet
  facet normal 0 0.991445 -0.130527
    outer loop
      vertex -34 17 10
      vertex -24 16.7444 8.05886
      vertex -34 16.7444 8.05886
    endloop
  endfacet
  facet normal 0 -0.608761 0.793354
    outer loop
      vertex -34 5.75 16.4952
      vertex -24 4.1967 15.3033
      vertex -24 5.75 16.4952
    endloop
  endfacet
  facet normal 0 -0.608761 0.793354
    outer loop
      vertex -24 4.1967 15.3033
      vertex -34 5.75 16.4952
      vertex -34 4.1967 15.3033
    endloop
  endfacet
  facet normal 0 -0.793354 -0.608761
    outer loop
      vertex -34 4.1967 4.6967
      vertex -24 3.00481 6.25
      vertex -34 3.00481 6.25
    endloop
  endfacet
  facet normal 0 -0.793354 -0.608761
    outer loop
      vertex -24 3.00481 6.25
      vertex -34 4.1967 4.6967
      vertex -24 4.1967 4.6967
    endloop
  endfacet
  facet normal -1.8041e-09 -0.130527 -0.991445
    outer loop
      vertex -28.0359 8.62552 2.61513
      vertex -24 9.5 2.5
      vertex -24 7.55886 2.75556
    endloop
  endfacet
  facet normal 1.30712e-08 -0.130527 -0.991445
    outer loop
      vertex -24 9.5 2.5
      vertex -28.0359 8.62552 2.61513
      vertex -27.85 9.49999 2.5
    endloop
  endfacet
  facet normal -2.50453e-08 -0.130527 -0.991445
    outer loop
      vertex -24 7.55886 2.75556
      vertex -28.5614 7.90224 2.71035
      vertex -28.0359 8.62552 2.61513
    endloop
  endfacet
  facet normal 0 -0.130526 -0.991445
    outer loop
      vertex -28.5614 7.90224 2.71035
      vertex -24 7.55886 2.75556
      vertex -29.1561 7.55886 2.75556
    endloop
  endfacet
  facet normal -0 -0.124035 -0.992278
    outer loop
      vertex -24 9.5 2.5
      vertex -27.85 9.49999 2.5
      vertex -28.0359 9.5 2.5
    endloop
  endfacet
  facet normal 0 -0.130526 -0.991445
    outer loop
      vertex -34 7.55886 2.75556
      vertex -31.075 7.63805 2.74513
      vertex -30.8313 7.55886 2.75556
    endloop
  endfacet
  facet normal 2.25955e-08 -0.130527 -0.991445
    outer loop
      vertex -34 7.55886 2.75556
      vertex -31.7394 8.23626 2.66637
      vertex -31.075 7.63805 2.74513
    endloop
  endfacet
  facet normal -1.01085e-07 -0.130526 -0.991445
    outer loop
      vertex -34 7.55886 2.75556
      vertex -32.103 9.05299 2.55885
      vertex -31.7394 8.23626 2.66637
    endloop
  endfacet
  facet normal 5.37287e-08 -0.130527 -0.991445
    outer loop
      vertex -34 9.5 2.5
      vertex -32.103 9.05299 2.55885
      vertex -34 7.55886 2.75556
    endloop
  endfacet
  facet normal 0 -0.130527 -0.991445
    outer loop
      vertex -32.103 9.05299 2.55885
      vertex -34 9.5 2.5
      vertex -32.103 9.5 2.5
    endloop
  endfacet
  facet normal 0 0.92388 0.382683
    outer loop
      vertex -24 16.7444 11.9411
      vertex -34 15.9952 13.75
      vertex -24 15.9952 13.75
    endloop
  endfacet
  facet normal 0 0.92388 0.382683
    outer loop
      vertex -34 15.9952 13.75
      vertex -24 16.7444 11.9411
      vertex -34 16.7444 11.9411
    endloop
  endfacet
  facet normal 0 0.608761 -0.793354
    outer loop
      vertex -34 13.25 3.50481
      vertex -24 14.8033 4.6967
      vertex -24 13.25 3.50481
    endloop
  endfacet
  facet normal 0 0.608761 -0.793354
    outer loop
      vertex -24 14.8033 4.6967
      vertex -34 13.25 3.50481
      vertex -34 14.8033 4.6967
    endloop
  endfacet
  facet normal 0 0.382684 -0.923879
    outer loop
      vertex -29.1561 11.4411 2.75556
      vertex -24 13.25 3.50481
      vertex -24 11.4411 2.75556
    endloop
  endfacet
  facet normal -9.36832e-08 0.382684 -0.923879
    outer loop
      vertex -29.3356 11.5448 2.79848
      vertex -24 13.25 3.50481
      vertex -29.1561 11.4411 2.75556
    endloop
  endfacet
  facet normal 3.30279e-08 0.382683 -0.92388
    outer loop
      vertex -30.2247 11.6382 2.83719
      vertex -24 13.25 3.50481
      vertex -29.3356 11.5448 2.79848
    endloop
  endfacet
  facet normal 0 0.382684 -0.923879
    outer loop
      vertex -34 13.25 3.50481
      vertex -30.8313 11.4411 2.75556
      vertex -34 11.4411 2.75556
    endloop
  endfacet
  facet normal 3.18067e-09 0.382684 -0.923879
    outer loop
      vertex -30.8313 11.4411 2.75556
      vertex -34 13.25 3.50481
      vertex -30.2247 11.6382 2.83719
    endloop
  endfacet
  facet normal 0 0.382684 -0.923879
    outer loop
      vertex -30.2247 11.6382 2.83719
      vertex -34 13.25 3.50481
      vertex -24 13.25 3.50481
    endloop
  endfacet
  facet normal 0 0.92388 -0.382683
    outer loop
      vertex -24 15.9952 6.25
      vertex -34 16.7444 8.05886
      vertex -24 16.7444 8.05886
    endloop
  endfacet
  facet normal 0 0.92388 -0.382683
    outer loop
      vertex -34 16.7444 8.05886
      vertex -24 15.9952 6.25
      vertex -34 15.9952 6.25
    endloop
  endfacet
  facet normal 0 -0.991445 0.130527
    outer loop
      vertex -34 2 10
      vertex -24 2.25556 11.9411
      vertex -34 2.25556 11.9411
    endloop
  endfacet
  facet normal 0 -0.991445 0.130527
    outer loop
      vertex -24 2.25556 11.9411
      vertex -34 2 10
      vertex -24 2 10
    endloop
  endfacet
  facet normal 0 -0.793354 0.608761
    outer loop
      vertex -34 3.00481 13.75
      vertex -24 4.1967 15.3033
      vertex -34 4.1967 15.3033
    endloop
  endfacet
  facet normal 0 -0.793354 0.608761
    outer loop
      vertex -24 4.1967 15.3033
      vertex -34 3.00481 13.75
      vertex -24 3.00481 13.75
    endloop
  endfacet
  facet normal 0 -0.92388 -0.382683
    outer loop
      vertex -34 3.00481 6.25
      vertex -24 2.25556 8.05886
      vertex -34 2.25556 8.05886
    endloop
  endfacet
  facet normal 0 -0.92388 -0.382683
    outer loop
      vertex -24 2.25556 8.05886
      vertex -34 3.00481 6.25
      vertex -24 3.00481 6.25
    endloop
  endfacet
  facet normal 0 -0.382684 -0.923879
    outer loop
      vertex -24 5.75 3.50481
      vertex -29.1561 7.55886 2.75556
      vertex -24 7.55886 2.75556
    endloop
  endfacet
  facet normal -9.36832e-08 -0.382684 -0.923879
    outer loop
      vertex -24 5.75 3.50481
      vertex -29.3356 7.45523 2.79848
      vertex -29.1561 7.55886 2.75556
    endloop
  endfacet
  facet normal 3.30279e-08 -0.382683 -0.92388
    outer loop
      vertex -24 5.75 3.50481
      vertex -30.2247 7.36178 2.83719
      vertex -29.3356 7.45523 2.79848
    endloop
  endfacet
  facet normal 0 -0.382684 -0.923879
    outer loop
      vertex -34 5.75 3.50481
      vertex -30.2247 7.36178 2.83719
      vertex -24 5.75 3.50481
    endloop
  endfacet
  facet normal 3.18067e-09 -0.382684 -0.923879
    outer loop
      vertex -34 5.75 3.50481
      vertex -30.8313 7.55886 2.75556
      vertex -30.2247 7.36178 2.83719
    endloop
  endfacet
  facet normal -0 -0.382684 -0.923879
    outer loop
      vertex -30.8313 7.55886 2.75556
      vertex -34 5.75 3.50481
      vertex -34 7.55886 2.75556
    endloop
  endfacet
  facet normal 0 -0.92388 0.382683
    outer loop
      vertex -34 2.25556 11.9411
      vertex -24 3.00481 13.75
      vertex -34 3.00481 13.75
    endloop
  endfacet
  facet normal 0 -0.92388 0.382683
    outer loop
      vertex -24 3.00481 13.75
      vertex -34 2.25556 11.9411
      vertex -24 2.25556 11.9411
    endloop
  endfacet
  facet normal 0 -0.382683 0.92388
    outer loop
      vertex -29.1561 7.55886 17.2444
      vertex -24 5.75 16.4952
      vertex -24 7.55886 17.2444
    endloop
  endfacet
  facet normal 3.00288e-06 -0.382676 0.923883
    outer loop
      vertex -29.3356 7.45523 17.2015
      vertex -24 5.75 16.4952
      vertex -29.1561 7.55886 17.2444
    endloop
  endfacet
  facet normal -8.85391e-07 -0.382686 0.923878
    outer loop
      vertex -30.2247 7.36178 17.1628
      vertex -24 5.75 16.4952
      vertex -29.3356 7.45523 17.2015
    endloop
  endfacet
  facet normal 0 -0.382683 0.92388
    outer loop
      vertex -34 5.75 16.4952
      vertex -30.8313 7.55886 17.2444
      vertex -34 7.55886 17.2444
    endloop
  endfacet
  facet normal -3.17039e-07 -0.382682 0.92388
    outer loop
      vertex -30.8313 7.55886 17.2444
      vertex -34 5.75 16.4952
      vertex -30.2247 7.36178 17.1628
    endloop
  endfacet
  facet normal 0 -0.382683 0.92388
    outer loop
      vertex -30.2247 7.36178 17.1628
      vertex -34 5.75 16.4952
      vertex -24 5.75 16.4952
    endloop
  endfacet
  facet normal 0 -0.130525 0.991445
    outer loop
      vertex -32.103 9.5 17.5
      vertex -34 9.5 17.5
      vertex -32.103 9.05299 17.4412
    endloop
  endfacet
  facet normal -5.59482e-07 -0.130527 0.991445
    outer loop
      vertex -34 7.55886 17.2444
      vertex -32.103 9.05299 17.4412
      vertex -34 9.5 17.5
    endloop
  endfacet
  facet normal -5.01583e-07 -0.130527 0.991445
    outer loop
      vertex -32.103 9.05299 17.4412
      vertex -34 7.55886 17.2444
      vertex -31.7394 8.23626 17.3336
    endloop
  endfacet
  facet normal 0 -0.130529 0.991444
    outer loop
      vertex -31.075 7.63805 17.2549
      vertex -34 7.55886 17.2444
      vertex -30.8313 7.55886 17.2444
    endloop
  endfacet
  facet normal -3.93225e-09 -0.130529 0.991445
    outer loop
      vertex -31.7394 8.23626 17.3336
      vertex -34 7.55886 17.2444
      vertex -31.075 7.63805 17.2549
    endloop
  endfacet
  facet normal 0 -0.130526 0.991445
    outer loop
      vertex -28.0359 8.62552 17.3849
      vertex -24 9.5 17.5
      vertex -27.85 9.5 17.5
    endloop
  endfacet
  facet normal 2.79446e-07 -0.130527 0.991445
    outer loop
      vertex -24 9.5 17.5
      vertex -28.0359 8.62552 17.3849
      vertex -24 7.55886 17.2444
    endloop
  endfacet
  facet normal 1.01512e-07 -0.130528 0.991445
    outer loop
      vertex -28.5614 7.90224 17.2896
      vertex -24 7.55886 17.2444
      vertex -28.0359 8.62552 17.3849
    endloop
  endfacet
  facet normal 0 -0.130529 0.991444
    outer loop
      vertex -24 7.55886 17.2444
      vertex -28.5614 7.90224 17.2896
      vertex -29.1561 7.55886 17.2444
    endloop
  endfacet
  facet normal 0 -0.991445 -0.130527
    outer loop
      vertex -34 2.25556 8.05886
      vertex -24 2 10
      vertex -34 2 10
    endloop
  endfacet
  facet normal 0 -0.991445 -0.130527
    outer loop
      vertex -24 2 10
      vertex -34 2.25556 8.05886
      vertex -24 2.25556 8.05886
    endloop
  endfacet
  facet normal 0 0 1
    outer loop
      vertex -24 12.15 8.35
      vertex -27.85 9.5 8.35
      vertex -24 6.85 8.35
    endloop
  endfacet
  facet normal 0 0 1
    outer loop
      vertex -24 12.15 8.35
      vertex -28.0359 10.3745 8.35
      vertex -27.85 9.5 8.35
    endloop
  endfacet
  facet normal 0 0 1
    outer loop
      vertex -24 12.15 8.35
      vertex -28.5614 11.0978 8.35
      vertex -28.0359 10.3745 8.35
    endloop
  endfacet
  facet normal 0 0 1
    outer loop
      vertex -24 12.15 8.35
      vertex -29.3356 11.5448 8.35
      vertex -28.5614 11.0978 8.35
    endloop
  endfacet
  facet normal 0 0 1
    outer loop
      vertex -24 12.15 8.35
      vertex -30.2247 11.6382 8.35
      vertex -29.3356 11.5448 8.35
    endloop
  endfacet
  facet normal 0 0 1
    outer loop
      vertex -32.103 9.94701 8.35
      vertex -34 12.15 8.35
      vertex -32.103 9.05299 8.35
    endloop
  endfacet
  facet normal 0 0 1
    outer loop
      vertex -31.7394 10.7637 8.35
      vertex -34 12.15 8.35
      vertex -32.103 9.94701 8.35
    endloop
  endfacet
  facet normal 0 0 1
    outer loop
      vertex -31.075 11.362 8.35
      vertex -34 12.15 8.35
      vertex -31.7394 10.7637 8.35
    endloop
  endfacet
  facet normal 0 0 1
    outer loop
      vertex -30.2247 11.6382 8.35
      vertex -34 12.15 8.35
      vertex -31.075 11.362 8.35
    endloop
  endfacet
  facet normal -0 0 1
    outer loop
      vertex -34 12.15 8.35
      vertex -30.2247 11.6382 8.35
      vertex -24 12.15 8.35
    endloop
  endfacet
  facet normal -0 0 1
    outer loop
      vertex -28.0359 8.62552 8.35
      vertex -24 6.85 8.35
      vertex -27.85 9.5 8.35
    endloop
  endfacet
  facet normal -0 0 1
    outer loop
      vertex -28.5614 7.90224 8.35
      vertex -24 6.85 8.35
      vertex -28.0359 8.62552 8.35
    endloop
  endfacet
  facet normal -0 0 1
    outer loop
      vertex -29.3356 7.45523 8.35
      vertex -24 6.85 8.35
      vertex -28.5614 7.90224 8.35
    endloop
  endfacet
  facet normal -0 0 1
    outer loop
      vertex -30.2247 7.36178 8.35
      vertex -24 6.85 8.35
      vertex -29.3356 7.45523 8.35
    endloop
  endfacet
  facet normal 0 0 1
    outer loop
      vertex -34 6.85 8.35
      vertex -32.103 9.05299 8.35
      vertex -34 12.15 8.35
    endloop
  endfacet
  facet normal 0 0 1
    outer loop
      vertex -30.2247 7.36178 8.35
      vertex -34 6.85 8.35
      vertex -24 6.85 8.35
    endloop
  endfacet
  facet normal 0 0 1
    outer loop
      vertex -31.075 7.63805 8.35
      vertex -34 6.85 8.35
      vertex -30.2247 7.36178 8.35
    endloop
  endfacet
  facet normal 0 0 1
    outer loop
      vertex -31.7394 8.23626 8.35
      vertex -34 6.85 8.35
      vertex -31.075 7.63805 8.35
    endloop
  endfacet
  facet normal 0 0 1
    outer loop
      vertex -32.103 9.05299 8.35
      vertex -34 6.85 8.35
      vertex -31.7394 8.23626 8.35
    endloop
  endfacet
  facet normal 0 0 -1
    outer loop
      vertex -24 6.85 11.65
      vertex -27.85 9.5 11.65
      vertex -24 12.15 11.65
    endloop
  endfacet
  facet normal 0 0 -1
    outer loop
      vertex -24 6.85 11.65
      vertex -28.0359 8.62552 11.65
      vertex -27.85 9.5 11.65
    endloop
  endfacet
  facet normal 0 0 -1
    outer loop
      vertex -24 6.85 11.65
      vertex -28.5614 7.90224 11.65
      vertex -28.0359 8.62552 11.65
    endloop
  endfacet
  facet normal 0 0 -1
    outer loop
      vertex -24 6.85 11.65
      vertex -29.3356 7.45523 11.65
      vertex -28.5614 7.90224 11.65
    endloop
  endfacet
  facet normal 0 0 -1
    outer loop
      vertex -24 6.85 11.65
      vertex -30.2247 7.36178 11.65
      vertex -29.3356 7.45523 11.65
    endloop
  endfacet
  facet normal -0 0 -1
    outer loop
      vertex -32.103 9.05299 11.65
      vertex -34 6.85 11.65
      vertex -32.103 9.94701 11.65
    endloop
  endfacet
  facet normal -0 0 -1
    outer loop
      vertex -31.7394 8.23626 11.65
      vertex -34 6.85 11.65
      vertex -32.103 9.05299 11.65
    endloop
  endfacet
  facet normal -0 0 -1
    outer loop
      vertex -31.075 7.63805 11.65
      vertex -34 6.85 11.65
      vertex -31.7394 8.23626 11.65
    endloop
  endfacet
  facet normal -0 0 -1
    outer loop
      vertex -30.2247 7.36178 11.65
      vertex -34 6.85 11.65
      vertex -31.075 7.63805 11.65
    endloop
  endfacet
  facet normal 0 0 -1
    outer loop
      vertex -34 6.85 11.65
      vertex -30.2247 7.36178 11.65
      vertex -24 6.85 11.65
    endloop
  endfacet
  facet normal 0 0 -1
    outer loop
      vertex -28.0359 10.3745 11.65
      vertex -24 12.15 11.65
      vertex -27.85 9.5 11.65
    endloop
  endfacet
  facet normal 0 0 -1
    outer loop
      vertex -28.5614 11.0978 11.65
      vertex -24 12.15 11.65
      vertex -28.0359 10.3745 11.65
    endloop
  endfacet
  facet normal 0 0 -1
    outer loop
      vertex -29.3356 11.5448 11.65
      vertex -24 12.15 11.65
      vertex -28.5614 11.0978 11.65
    endloop
  endfacet
  facet normal 0 0 -1
    outer loop
      vertex -30.2247 11.6382 11.65
      vertex -24 12.15 11.65
      vertex -29.3356 11.5448 11.65
    endloop
  endfacet
  facet normal 0 0 -1
    outer loop
      vertex -34 12.15 11.65
      vertex -32.103 9.94701 11.65
      vertex -34 6.85 11.65
    endloop
  endfacet
  facet normal 0 0 -1
    outer loop
      vertex -30.2247 11.6382 11.65
      vertex -34 12.15 11.65
      vertex -24 12.15 11.65
    endloop
  endfacet
  facet normal 0 0 -1
    outer loop
      vertex -31.075 11.362 11.65
      vertex -34 12.15 11.65
      vertex -30.2247 11.6382 11.65
    endloop
  endfacet
  facet normal 0 0 -1
    outer loop
      vertex -31.7394 10.7637 11.65
      vertex -34 12.15 11.65
      vertex -31.075 11.362 11.65
    endloop
  endfacet
  facet normal 0 0 -1
    outer loop
      vertex -32.103 9.94701 11.65
      vertex -34 12.15 11.65
      vertex -31.7394 10.7637 11.65
    endloop
  endfacet
  facet normal 0 -1 0
    outer loop
      vertex -34 12.15 8.35
      vertex -24 12.15 11.65
      vertex -34 12.15 11.65
    endloop
  endfacet
  facet normal 0 -1 -0
    outer loop
      vertex -24 12.15 11.65
      vertex -34 12.15 8.35
      vertex -24 12.15 8.35
    endloop
  endfacet
  facet normal 0 1 -0
    outer loop
      vertex -24 6.85 8.35
      vertex -34 6.85 11.65
      vertex -24 6.85 11.65
    endloop
  endfacet
  facet normal 0 1 0
    outer loop
      vertex -34 6.85 11.65
      vertex -24 6.85 8.35
      vertex -34 6.85 8.35
    endloop
  endfacet
  facet normal -0.978147 -0.207913 0
    outer loop
      vertex -27.85 9.5 11.65
      vertex -28.0359 10.3745 17.3849
      vertex -28.0359 10.3745 11.65
    endloop
  endfacet
  facet normal -0.978147 -0.207913 0
    outer loop
      vertex -28.0359 10.3745 17.3849
      vertex -27.85 9.5 11.65
      vertex -27.85 9.5 17.5
    endloop
  endfacet
  facet normal -0.978147 -0.207913 4.77635e-08
    outer loop
      vertex -27.85 9.5 8.35
      vertex -28.0359 10.3745 2.61513
      vertex -27.85 9.50001 2.5
    endloop
  endfacet
  facet normal -0.970143 -0.242536 -0
    outer loop
      vertex -27.85 9.5 8.35
      vertex -27.85 9.50001 2.5
      vertex -27.85 9.5 2.5
    endloop
  endfacet
  facet normal -0.978147 -0.207913 0
    outer loop
      vertex -28.0359 10.3745 2.61513
      vertex -27.85 9.5 8.35
      vertex -28.0359 10.3745 8.35
    endloop
  endfacet
  facet normal 1 0 0
    outer loop
      vertex -32.103 9.05299 2.55885
      vertex -32.103 9.94701 2.55885
      vertex -32.103 9.94701 8.35
    endloop
  endfacet
  facet normal 1 0 0
    outer loop
      vertex -32.103 9.05299 2.55885
      vertex -32.103 9.94701 8.35
      vertex -32.103 9.05299 8.35
    endloop
  endfacet
  facet normal 1 0 0
    outer loop
      vertex -32.103 9.94701 2.55885
      vertex -32.103 9.05299 2.55885
      vertex -32.103 9.5 2.5
    endloop
  endfacet
  facet normal 1 0 0
    outer loop
      vertex -32.103 9.05299 17.4412
      vertex -32.103 9.94701 17.4412
      vertex -32.103 9.5 17.5
    endloop
  endfacet
  facet normal 1 0 0
    outer loop
      vertex -32.103 9.94701 17.4412
      vertex -32.103 9.05299 17.4412
      vertex -32.103 9.94701 11.65
    endloop
  endfacet
  facet normal 1 0 0
    outer loop
      vertex -32.103 9.94701 11.65
      vertex -32.103 9.05299 17.4412
      vertex -32.103 9.05299 11.65
    endloop
  endfacet
  facet normal -0.809017 -0.587785 -0
    outer loop
      vertex -28.0359 10.3745 8.35
      vertex -28.5614 11.0978 2.71035
      vertex -28.0359 10.3745 2.61513
    endloop
  endfacet
  facet normal -0.809017 -0.587785 0
    outer loop
      vertex -28.5614 11.0978 2.71035
      vertex -28.0359 10.3745 8.35
      vertex -28.5614 11.0978 8.35
    endloop
  endfacet
  facet normal -0.809017 -0.587785 0
    outer loop
      vertex -28.0359 10.3745 11.65
      vertex -28.5614 11.0978 17.2896
      vertex -28.5614 11.0978 11.65
    endloop
  endfacet
  facet normal -0.809017 -0.587785 0
    outer loop
      vertex -28.5614 11.0978 17.2896
      vertex -28.0359 10.3745 11.65
      vertex -28.0359 10.3745 17.3849
    endloop
  endfacet
  facet normal -0.104529 0.994522 0
    outer loop
      vertex -29.3356 7.45523 8.35
      vertex -30.2247 7.36178 2.83719
      vertex -30.2247 7.36178 8.35
    endloop
  endfacet
  facet normal -0.104529 0.994522 0
    outer loop
      vertex -30.2247 7.36178 2.83719
      vertex -29.3356 7.45523 8.35
      vertex -29.3356 7.45523 2.79848
    endloop
  endfacet
  facet normal -0.104529 0.994522 0
    outer loop
      vertex -29.3356 7.45523 11.65
      vertex -30.2247 7.36178 17.1628
      vertex -29.3356 7.45523 17.2015
    endloop
  endfacet
  facet normal -0.104529 0.994522 0
    outer loop
      vertex -30.2247 7.36178 17.1628
      vertex -29.3356 7.45523 11.65
      vertex -30.2247 7.36178 11.65
    endloop
  endfacet
  facet normal -0.5 -0.866025 0
    outer loop
      vertex -29.3356 11.5448 2.79848
      vertex -28.5614 11.0978 8.35
      vertex -29.3356 11.5448 8.35
    endloop
  endfacet
  facet normal -0.5 -0.866025 -2.38971e-06
    outer loop
      vertex -28.5614 11.0978 2.71035
      vertex -29.3356 11.5448 2.79848
      vertex -29.1561 11.4411 2.75556
    endloop
  endfacet
  facet normal -0.5 -0.866025 0
    outer loop
      vertex -29.3356 11.5448 2.79848
      vertex -28.5614 11.0978 2.71035
      vertex -28.5614 11.0978 8.35
    endloop
  endfacet
  facet normal -0.5 -0.866025 2.38987e-06
    outer loop
      vertex -29.3356 11.5448 17.2015
      vertex -28.5614 11.0978 17.2896
      vertex -29.1561 11.4411 17.2444
    endloop
  endfacet
  facet normal -0.5 -0.866025 0
    outer loop
      vertex -28.5614 11.0978 11.65
      vertex -29.3356 11.5448 17.2015
      vertex -29.3356 11.5448 11.65
    endloop
  endfacet
  facet normal -0.5 -0.866025 0
    outer loop
      vertex -29.3356 11.5448 17.2015
      vertex -28.5614 11.0978 11.65
      vertex -28.5614 11.0978 17.2896
    endloop
  endfacet
  facet normal 0.669131 -0.743144 0
    outer loop
      vertex -31.7394 10.7637 8.35
      vertex -31.075 11.362 2.74513
      vertex -31.075 11.362 8.35
    endloop
  endfacet
  facet normal 0.669131 -0.743144 0
    outer loop
      vertex -31.075 11.362 2.74513
      vertex -31.7394 10.7637 8.35
      vertex -31.7394 10.7637 2.66637
    endloop
  endfacet
  facet normal 0.66913 -0.743145 0
    outer loop
      vertex -31.7394 10.7637 11.65
      vertex -31.075 11.362 17.2549
      vertex -31.7394 10.7637 17.3336
    endloop
  endfacet
  facet normal 0.66913 -0.743145 0
    outer loop
      vertex -31.075 11.362 17.2549
      vertex -31.7394 10.7637 11.65
      vertex -31.075 11.362 11.65
    endloop
  endfacet
  facet normal 0.913546 -0.406736 0
    outer loop
      vertex -32.103 9.94701 8.35
      vertex -31.7394 10.7637 2.66637
      vertex -31.7394 10.7637 8.35
    endloop
  endfacet
  facet normal 0.913546 -0.406736 0
    outer loop
      vertex -31.7394 10.7637 2.66637
      vertex -32.103 9.94701 8.35
      vertex -32.103 9.94701 2.55885
    endloop
  endfacet
  facet normal 0.913546 -0.406736 0
    outer loop
      vertex -32.103 9.94701 11.65
      vertex -31.7394 10.7637 17.3336
      vertex -32.103 9.94701 17.4412
    endloop
  endfacet
  facet normal 0.913546 -0.406736 0
    outer loop
      vertex -31.7394 10.7637 17.3336
      vertex -32.103 9.94701 11.65
      vertex -31.7394 10.7637 11.65
    endloop
  endfacet
  facet normal 0.309017 -0.951057 0
    outer loop
      vertex -31.075 11.362 8.35
      vertex -30.2247 11.6382 2.83719
      vertex -30.2247 11.6382 8.35
    endloop
  endfacet
  facet normal 0.309017 -0.951056 3.99516e-08
    outer loop
      vertex -31.075 11.362 8.35
      vertex -30.8313 11.4411 2.75556
      vertex -30.2247 11.6382 2.83719
    endloop
  endfacet
  facet normal 0.309016 -0.951057 0
    outer loop
      vertex -30.8313 11.4411 2.75556
      vertex -31.075 11.362 8.35
      vertex -31.075 11.362 2.74513
    endloop
  endfacet
  facet normal 0.309019 -0.951056 0
    outer loop
      vertex -31.075 11.362 11.65
      vertex -30.8313 11.4411 17.2444
      vertex -31.075 11.362 17.2549
    endloop
  endfacet
  facet normal 0.309017 -0.951056 6.47895e-08
    outer loop
      vertex -30.8313 11.4411 17.2444
      vertex -31.075 11.362 11.65
      vertex -30.2247 11.6382 17.1628
    endloop
  endfacet
  facet normal 0.309018 -0.951056 0
    outer loop
      vertex -30.2247 11.6382 17.1628
      vertex -31.075 11.362 11.65
      vertex -30.2247 11.6382 11.65
    endloop
  endfacet
  facet normal 0 0 1
    outer loop
      vertex -27.85 9.50001 2.5
      vertex -27.85 9.49999 2.5
      vertex -27.85 9.5 2.5
    endloop
  endfacet
  facet normal -5.13068e-06 0 1
    outer loop
      vertex -27.85 9.49999 2.5
      vertex -27.85 9.50001 2.5
      vertex -28.0359 9.5 2.5
    endloop
  endfacet
  facet normal -0.978147 0.207913 0
    outer loop
      vertex -28.0359 8.62552 17.3849
      vertex -27.85 9.5 11.65
      vertex -28.0359 8.62552 11.65
    endloop
  endfacet
  facet normal -0.978147 0.207913 0
    outer loop
      vertex -27.85 9.5 11.65
      vertex -28.0359 8.62552 17.3849
      vertex -27.85 9.5 17.5
    endloop
  endfacet
  facet normal -0.970143 0.242536 0
    outer loop
      vertex -27.85 9.49999 2.5
      vertex -27.85 9.5 8.35
      vertex -27.85 9.5 2.5
    endloop
  endfacet
  facet normal -0.978147 0.207913 4.77635e-08
    outer loop
      vertex -28.0359 8.62552 2.61513
      vertex -27.85 9.5 8.35
      vertex -27.85 9.49999 2.5
    endloop
  endfacet
  facet normal -0.978147 0.207913 0
    outer loop
      vertex -27.85 9.5 8.35
      vertex -28.0359 8.62552 2.61513
      vertex -28.0359 8.62552 8.35
    endloop
  endfacet
  facet normal -0.104529 -0.994522 0
    outer loop
      vertex -30.2247 11.6382 2.83719
      vertex -29.3356 11.5448 8.35
      vertex -30.2247 11.6382 8.35
    endloop
  endfacet
  facet normal -0.104529 -0.994522 -0
    outer loop
      vertex -29.3356 11.5448 8.35
      vertex -30.2247 11.6382 2.83719
      vertex -29.3356 11.5448 2.79848
    endloop
  endfacet
  facet normal -0.104529 -0.994522 0
    outer loop
      vertex -29.3356 11.5448 11.65
      vertex -30.2247 11.6382 17.1628
      vertex -30.2247 11.6382 11.65
    endloop
  endfacet
  facet normal -0.104529 -0.994522 0
    outer loop
      vertex -30.2247 11.6382 17.1628
      vertex -29.3356 11.5448 11.65
      vertex -29.3356 11.5448 17.2015
    endloop
  endfacet
  facet normal -0.5 0.866025 0
    outer loop
      vertex -28.5614 7.90224 8.35
      vertex -29.3356 7.45523 2.79848
      vertex -29.3356 7.45523 8.35
    endloop
  endfacet
  facet normal -0.5 0.866025 0
    outer loop
      vertex -28.5614 7.90224 2.71035
      vertex -29.3356 7.45523 2.79848
      vertex -28.5614 7.90224 8.35
    endloop
  endfacet
  facet normal -0.5 0.866025 -2.38971e-06
    outer loop
      vertex -29.3356 7.45523 2.79848
      vertex -28.5614 7.90224 2.71035
      vertex -29.1561 7.55886 2.75556
    endloop
  endfacet
  facet normal -0.5 0.866025 2.38987e-06
    outer loop
      vertex -28.5614 7.90224 17.2896
      vertex -29.3356 7.45523 17.2015
      vertex -29.1561 7.55886 17.2444
    endloop
  endfacet
  facet normal -0.5 0.866025 0
    outer loop
      vertex -28.5614 7.90224 11.65
      vertex -29.3356 7.45523 17.2015
      vertex -28.5614 7.90224 17.2896
    endloop
  endfacet
  facet normal -0.5 0.866025 0
    outer loop
      vertex -29.3356 7.45523 17.2015
      vertex -28.5614 7.90224 11.65
      vertex -29.3356 7.45523 11.65
    endloop
  endfacet
  facet normal -0.809017 0.587785 0
    outer loop
      vertex -28.5614 7.90224 2.71035
      vertex -28.0359 8.62552 8.35
      vertex -28.0359 8.62552 2.61513
    endloop
  endfacet
  facet normal -0.809017 0.587785 0
    outer loop
      vertex -28.0359 8.62552 8.35
      vertex -28.5614 7.90224 2.71035
      vertex -28.5614 7.90224 8.35
    endloop
  endfacet
  facet normal -0.809017 0.587785 0
    outer loop
      vertex -28.5614 7.90224 17.2896
      vertex -28.0359 8.62552 11.65
      vertex -28.5614 7.90224 11.65
    endloop
  endfacet
  facet normal -0.809017 0.587785 0
    outer loop
      vertex -28.0359 8.62552 11.65
      vertex -28.5614 7.90224 17.2896
      vertex -28.0359 8.62552 17.3849
    endloop
  endfacet
  facet normal 0.309017 0.951057 -0
    outer loop
      vertex -30.2247 7.36178 2.83719
      vertex -31.075 7.63805 8.35
      vertex -30.2247 7.36178 8.35
    endloop
  endfacet
  facet normal 0.309017 0.951056 3.99516e-08
    outer loop
      vertex -30.8313 7.55886 2.75556
      vertex -31.075 7.63805 8.35
      vertex -30.2247 7.36178 2.83719
    endloop
  endfacet
  facet normal 0.309016 0.951057 0
    outer loop
      vertex -31.075 7.63805 8.35
      vertex -30.8313 7.55886 2.75556
      vertex -31.075 7.63805 2.74513
    endloop
  endfacet
  facet normal 0.309017 0.951056 6.47895e-08
    outer loop
      vertex -31.075 7.63805 11.65
      vertex -30.8313 7.55886 17.2444
      vertex -30.2247 7.36178 17.1628
    endloop
  endfacet
  facet normal 0.309018 0.951056 0
    outer loop
      vertex -31.075 7.63805 11.65
      vertex -30.2247 7.36178 17.1628
      vertex -30.2247 7.36178 11.65
    endloop
  endfacet
  facet normal 0.309019 0.951056 0
    outer loop
      vertex -30.8313 7.55886 17.2444
      vertex -31.075 7.63805 11.65
      vertex -31.075 7.63805 17.2549
    endloop
  endfacet
  facet normal 0.669131 0.743144 -0
    outer loop
      vertex -31.075 7.63805 2.74513
      vertex -31.7394 8.23626 8.35
      vertex -31.075 7.63805 8.35
    endloop
  endfacet
  facet normal 0.669131 0.743144 0
    outer loop
      vertex -31.7394 8.23626 8.35
      vertex -31.075 7.63805 2.74513
      vertex -31.7394 8.23626 2.66637
    endloop
  endfacet
  facet normal 0.66913 0.743145 0
    outer loop
      vertex -31.7394 8.23626 11.65
      vertex -31.075 7.63805 17.2549
      vertex -31.075 7.63805 11.65
    endloop
  endfacet
  facet normal 0.66913 0.743145 0
    outer loop
      vertex -31.075 7.63805 17.2549
      vertex -31.7394 8.23626 11.65
      vertex -31.7394 8.23626 17.3336
    endloop
  endfacet
  facet normal 0.913546 0.406736 -0
    outer loop
      vertex -31.7394 8.23626 2.66637
      vertex -32.103 9.05299 8.35
      vertex -31.7394 8.23626 8.35
    endloop
  endfacet
  facet normal 0.913546 0.406736 0
    outer loop
      vertex -32.103 9.05299 8.35
      vertex -31.7394 8.23626 2.66637
      vertex -32.103 9.05299 2.55885
    endloop
  endfacet
  facet normal 0.913546 0.406736 0
    outer loop
      vertex -31.7394 8.23626 17.3336
      vertex -32.103 9.05299 11.65
      vertex -32.103 9.05299 17.4412
    endloop
  endfacet
  facet normal 0.913546 0.406736 0
    outer loop
      vertex -32.103 9.05299 11.65
      vertex -31.7394 8.23626 17.3336
      vertex -31.7394 8.23626 11.65
    endloop
  endfacet
  facet normal -0 0 1
    outer loop
      vertex 21 -6.5 23
      vertex 24 -9.5 23
      vertex 24 -6.5 23
    endloop
  endfacet
  facet normal -0 0 1
    outer loop
      vertex -21 -6.5 23
      vertex 24 -9.5 23
      vertex 21 -6.5 23
    endloop
  endfacet
  facet normal 0 0 1
    outer loop
      vertex -24 -9.5 23
      vertex -21 -6.5 23
      vertex -24 -6.5 23
    endloop
  endfacet
  facet normal 0 0 1
    outer loop
      vertex -21 -6.5 23
      vertex -24 -9.5 23
      vertex 24 -9.5 23
    endloop
  endfacet
  facet normal 0 1 -0
    outer loop
      vertex 21 -6.5 22.3143
      vertex -21 -6.5 23
      vertex 21 -6.5 23
    endloop
  endfacet
  facet normal 0 1 0
    outer loop
      vertex -21 -6.5 3
      vertex 21 -6.5 22.3143
      vertex 21 -6.5 3
    endloop
  endfacet
  facet normal 0 1 0
    outer loop
      vertex 21 -6.5 22.3143
      vertex -21 -6.5 3
      vertex -21 -6.5 23
    endloop
  endfacet
  facet normal 0 0 0
    outer loop
      vertex -24 -6.5 3
      vertex -24 -6.5 23
      vertex -24 -6.5 22.3143
    endloop
  endfacet
  facet normal 1 0 0
    outer loop
      vertex 24 25.5 15
      vertex 24 21.3261 3
      vertex 24 25.5 3
    endloop
  endfacet
  facet normal 1 0 -0
    outer loop
      vertex 24 21.3261 3
      vertex 24 25.5 15
      vertex 24 -6.5 23
    endloop
  endfacet
  facet normal 1 0 0
    outer loop
      vertex 24 -6.5 3
      vertex 24 21.3261 3
      vertex 24 -6.5 23
    endloop
  endfacet
  facet normal -1 0 0
    outer loop
      vertex 21 -6.5 3
      vertex 21 25.5 15
      vertex 21 25.5 3
    endloop
  endfacet
  facet normal -1 -0 0
    outer loop
      vertex 21 25.5 15
      vertex 21 -6.5 3
      vertex 21 -6.5 22.3143
    endloop
  endfacet
  facet normal -0 0.242536 0.970143
    outer loop
      vertex 21 25.5 15
      vertex 24 -6.5 23
      vertex 24 25.5 15
    endloop
  endfacet
  facet normal 0 0.242536 0.970143
    outer loop
      vertex 24 -6.5 23
      vertex 21 25.5 15
      vertex 21 -6.5 23
    endloop
  endfacet
  facet normal -1 0 0
    outer loop
      vertex 21 -6.5 23
      vertex 21 25.5 15
      vertex 21 -6.5 22.3143
    endloop
  endfacet
  facet normal 1 0 0
    outer loop
      vertex -21 -6.5 23
      vertex -21 -6.5 3
      vertex -21 21.3261 3
    endloop
  endfacet
  facet normal -0 0.242536 0.970143
    outer loop
      vertex -24 25.5 15
      vertex -21 -6.5 23
      vertex -21 25.5 15
    endloop
  endfacet
  facet normal 0 0.242536 0.970143
    outer loop
      vertex -21 -6.5 23
      vertex -24 25.5 15
      vertex -24 -6.5 23
    endloop
  endfacet
  facet normal -1 0 0
    outer loop
      vertex -24 -6.5 22.3143
      vertex -24 16.8309 11.2847
      vertex -24 13.8333 10
    endloop
  endfacet
  facet normal -1 0 0
    outer loop
      vertex -24 -6.5 22.3143
      vertex -24 -2.5 3
      vertex -24 -6.5 3
    endloop
  endfacet
  facet normal -1 0 0
    outer loop
      vertex -24 -2.5 3
      vertex -24 -6.5 22.3143
      vertex -24 13.8333 10
    endloop
  endfacet
  facet normal -1 0 0
    outer loop
      vertex -24 16.8309 11.2847
      vertex -24 -6.5 22.3143
      vertex -24 25.5 15
    endloop
  endfacet
  facet normal 1 0 0
    outer loop
      vertex -21 25.5 15
      vertex -21 21.3261 3
      vertex -21 25.5 3
    endloop
  endfacet
  facet normal 1 0 -0
    outer loop
      vertex -21 21.3261 3
      vertex -21 25.5 15
      vertex -21 -6.5 23
    endloop
  endfacet
  facet normal -1 0 0
    outer loop
      vertex -24 -6.5 23
      vertex -24 25.5 15
      vertex -24 -6.5 22.3143
    endloop
  endfacet
  facet normal 0 0.125333 -0.992115
    outer loop
      vertex 24 9.5 6.25
      vertex 31.5 10.4326 6.36781
      vertex 31.5 9.5 6.25
    endloop
  endfacet
  facet normal 0 0.125333 -0.992115
    outer loop
      vertex 31.5 10.4326 6.36781
      vertex 24 9.5 6.25
      vertex 24 10.4326 6.36781
    endloop
  endfacet
  facet normal -0 0 1
    outer loop
      vertex 24 9.97 13.7204
      vertex 31.5 9.03 13.7204
      vertex 31.5 9.97 13.7204
    endloop
  endfacet
  facet normal 0 0 1
    outer loop
      vertex 31.5 9.03 13.7204
      vertex 24 9.97 13.7204
      vertex 24 9.03 13.7204
    endloop
  endfacet
  facet normal 0 0.998027 0.0627904
    outer loop
      vertex 31.5 13.2426 9.76453
      vertex 24 13.1836 10.7027
      vertex 31.5 13.1836 10.7027
    endloop
  endfacet
  facet normal 0 0.998027 0.0627904
    outer loop
      vertex 24 13.1836 10.7027
      vertex 31.5 13.2426 9.76453
      vertex 24 13.2426 9.76453
    endloop
  endfacet
  facet normal 0 -0.982287 -0.187381
    outer loop
      vertex 24 5.93354 8.84119
      vertex 31.5 5.7574 9.76453
      vertex 24 5.7574 9.76453
    endloop
  endfacet
  facet normal 0 -0.982287 -0.187381
    outer loop
      vertex 31.5 5.7574 9.76453
      vertex 24 5.93354 8.84119
      vertex 31.5 5.93354 8.84119
    endloop
  endfacet
  facet normal 0 0.368124 -0.929777
    outer loop
      vertex 24 10.4326 6.36781
      vertex 31.5 11.3066 6.71385
      vertex 31.5 10.4326 6.36781
    endloop
  endfacet
  facet normal 0 0.368124 -0.929777
    outer loop
      vertex 31.5 11.3066 6.71385
      vertex 24 10.4326 6.36781
      vertex 24 11.3066 6.71385
    endloop
  endfacet
  facet normal 0 0.904827 -0.42578
    outer loop
      vertex 31.5 12.6662 7.99065
      vertex 24 13.0665 8.84119
      vertex 31.5 13.0665 8.84119
    endloop
  endfacet
  facet normal 0 0.904827 -0.42578
    outer loop
      vertex 24 13.0665 8.84119
      vertex 31.5 12.6662 7.99065
      vertex 24 12.6662 7.99065
    endloop
  endfacet
  facet normal -0 0.684547 0.728969
    outer loop
      vertex 24 12.3894 12.3903
      vertex 31.5 11.7042 13.0338
      vertex 31.5 12.3894 12.3903
    endloop
  endfacet
  facet normal 0 0.684547 0.728969
    outer loop
      vertex 31.5 11.7042 13.0338
      vertex 24 12.3894 12.3903
      vertex 24 11.7042 13.0338
    endloop
  endfacet
  facet normal 0 0.844328 0.535826
    outer loop
      vertex 31.5 12.8931 11.5967
      vertex 24 12.3894 12.3903
      vertex 31.5 12.3894 12.3903
    endloop
  endfacet
  facet normal 0 0.844328 0.535826
    outer loop
      vertex 24 12.3894 12.3903
      vertex 31.5 12.8931 11.5967
      vertex 24 12.8931 11.5967
    endloop
  endfacet
  facet normal 0 0.587785 -0.809017
    outer loop
      vertex 24 11.3066 6.71385
      vertex 31.5 12.0671 7.26637
      vertex 31.5 11.3066 6.71385
    endloop
  endfacet
  facet normal 0 0.587785 -0.809017
    outer loop
      vertex 31.5 12.0671 7.26637
      vertex 24 11.3066 6.71385
      vertex 24 12.0671 7.26637
    endloop
  endfacet
  facet normal 0 0.982287 -0.187381
    outer loop
      vertex 31.5 13.0665 8.84119
      vertex 24 13.2426 9.76453
      vertex 31.5 13.2426 9.76453
    endloop
  endfacet
  facet normal 0 0.982287 -0.187381
    outer loop
      vertex 24 13.2426 9.76453
      vertex 31.5 13.0665 8.84119
      vertex 24 13.0665 8.84119
    endloop
  endfacet
  facet normal -0 0.481753 0.876307
    outer loop
      vertex 24 11.7042 13.0338
      vertex 31.5 10.8805 13.4867
      vertex 31.5 11.7042 13.0338
    endloop
  endfacet
  facet normal 0 0.481753 0.876307
    outer loop
      vertex 31.5 10.8805 13.4867
      vertex 24 11.7042 13.0338
      vertex 24 10.8805 13.4867
    endloop
  endfacet
  facet normal -0 0.24869 0.968583
    outer loop
      vertex 24 10.8805 13.4867
      vertex 31.5 9.97 13.7204
      vertex 31.5 10.8805 13.4867
    endloop
  endfacet
  facet normal 0 0.24869 0.968583
    outer loop
      vertex 31.5 9.97 13.7204
      vertex 24 10.8805 13.4867
      vertex 24 9.97 13.7204
    endloop
  endfacet
  facet normal 0 0.951056 0.309017
    outer loop
      vertex 31.5 13.1836 10.7027
      vertex 24 12.8931 11.5967
      vertex 31.5 12.8931 11.5967
    endloop
  endfacet
  facet normal 0 0.951056 0.309017
    outer loop
      vertex 24 12.8931 11.5967
      vertex 31.5 13.1836 10.7027
      vertex 24 13.1836 10.7027
    endloop
  endfacet
  facet normal 1 0 0
    outer loop
      vertex 31.5 13.1836 10.7027
      vertex 31.5 13.0665 8.84119
      vertex 31.5 13.2426 9.76453
    endloop
  endfacet
  facet normal 1 0 0
    outer loop
      vertex 31.5 12.8931 11.5967
      vertex 31.5 13.0665 8.84119
      vertex 31.5 13.1836 10.7027
    endloop
  endfacet
  facet normal 1 0 0
    outer loop
      vertex 31.5 12.8931 11.5967
      vertex 31.5 12.6662 7.99065
      vertex 31.5 13.0665 8.84119
    endloop
  endfacet
  facet normal 1 0 0
    outer loop
      vertex 31.5 12.3894 12.3903
      vertex 31.5 12.6662 7.99065
      vertex 31.5 12.8931 11.5967
    endloop
  endfacet
  facet normal 1 0 0
    outer loop
      vertex 31.5 12.3894 12.3903
      vertex 31.5 12.0671 7.26637
      vertex 31.5 12.6662 7.99065
    endloop
  endfacet
  facet normal 1 0 0
    outer loop
      vertex 31.5 11.7042 13.0338
      vertex 31.5 12.0671 7.26637
      vertex 31.5 12.3894 12.3903
    endloop
  endfacet
  facet normal 1 0 0
    outer loop
      vertex 31.5 11.7042 13.0338
      vertex 31.5 11.3066 6.71385
      vertex 31.5 12.0671 7.26637
    endloop
  endfacet
  facet normal 1 0 0
    outer loop
      vertex 31.5 10.8805 13.4867
      vertex 31.5 11.3066 6.71385
      vertex 31.5 11.7042 13.0338
    endloop
  endfacet
  facet normal 1 0 0
    outer loop
      vertex 31.5 10.8805 13.4867
      vertex 31.5 10.4326 6.36781
      vertex 31.5 11.3066 6.71385
    endloop
  endfacet
  facet normal 1 0 0
    outer loop
      vertex 31.5 9.97 13.7204
      vertex 31.5 10.4326 6.36781
      vertex 31.5 10.8805 13.4867
    endloop
  endfacet
  facet normal 1 0 0
    outer loop
      vertex 31.5 9.97 13.7204
      vertex 31.5 9.5 6.25
      vertex 31.5 10.4326 6.36781
    endloop
  endfacet
  facet normal 1 -0 0
    outer loop
      vertex 31.5 9.03 13.7204
      vertex 31.5 9.5 6.25
      vertex 31.5 9.97 13.7204
    endloop
  endfacet
  facet normal 1 0 0
    outer loop
      vertex 31.5 9.03 13.7204
      vertex 31.5 8.56741 6.36781
      vertex 31.5 9.5 6.25
    endloop
  endfacet
  facet normal 1 -0 0
    outer loop
      vertex 31.5 8.11953 13.4867
      vertex 31.5 8.56741 6.36781
      vertex 31.5 9.03 13.7204
    endloop
  endfacet
  facet normal 1 0 0
    outer loop
      vertex 31.5 8.11953 13.4867
      vertex 31.5 7.69342 6.71385
      vertex 31.5 8.56741 6.36781
    endloop
  endfacet
  facet normal 1 -0 0
    outer loop
      vertex 31.5 7.2958 13.0338
      vertex 31.5 7.69342 6.71385
      vertex 31.5 8.11953 13.4867
    endloop
  endfacet
  facet normal 1 0 0
    outer loop
      vertex 31.5 7.2958 13.0338
      vertex 31.5 6.93295 7.26637
      vertex 31.5 7.69342 6.71385
    endloop
  endfacet
  facet normal 1 -0 0
    outer loop
      vertex 31.5 6.61057 12.3903
      vertex 31.5 6.93295 7.26637
      vertex 31.5 7.2958 13.0338
    endloop
  endfacet
  facet normal 1 0 0
    outer loop
      vertex 31.5 6.61057 12.3903
      vertex 31.5 6.33377 7.99065
      vertex 31.5 6.93295 7.26637
    endloop
  endfacet
  facet normal 1 -0 0
    outer loop
      vertex 31.5 6.1069 11.5967
      vertex 31.5 6.33377 7.99065
      vertex 31.5 6.61057 12.3903
    endloop
  endfacet
  facet normal 1 0 0
    outer loop
      vertex 31.5 6.1069 11.5967
      vertex 31.5 5.93354 8.84119
      vertex 31.5 6.33377 7.99065
    endloop
  endfacet
  facet normal 1 -0 0
    outer loop
      vertex 31.5 5.81642 10.7027
      vertex 31.5 5.93354 8.84119
      vertex 31.5 6.1069 11.5967
    endloop
  endfacet
  facet normal 1 0 0
    outer loop
      vertex 31.5 5.93354 8.84119
      vertex 31.5 5.81642 10.7027
      vertex 31.5 5.7574 9.76453
    endloop
  endfacet
  facet normal 0 -0.587785 -0.809017
    outer loop
      vertex 24 6.93295 7.26637
      vertex 31.5 7.69342 6.71385
      vertex 31.5 6.93295 7.26637
    endloop
  endfacet
  facet normal -0 -0.587785 -0.809017
    outer loop
      vertex 31.5 7.69342 6.71385
      vertex 24 6.93295 7.26637
      vertex 24 7.69342 6.71385
    endloop
  endfacet
  facet normal 0 -0.368124 -0.929777
    outer loop
      vertex 24 7.69342 6.71385
      vertex 31.5 8.56741 6.36781
      vertex 31.5 7.69342 6.71385
    endloop
  endfacet
  facet normal -0 -0.368124 -0.929777
    outer loop
      vertex 31.5 8.56741 6.36781
      vertex 24 7.69342 6.71385
      vertex 24 8.56741 6.36781
    endloop
  endfacet
  facet normal 0 0.770513 -0.637424
    outer loop
      vertex 31.5 12.0671 7.26637
      vertex 24 12.6662 7.99065
      vertex 31.5 12.6662 7.99065
    endloop
  endfacet
  facet normal 0 0.770513 -0.637424
    outer loop
      vertex 24 12.6662 7.99065
      vertex 31.5 12.0671 7.26637
      vertex 24 12.0671 7.26637
    endloop
  endfacet
  facet normal 0 -0.684547 0.728969
    outer loop
      vertex 24 7.2958 13.0338
      vertex 31.5 6.61057 12.3903
      vertex 31.5 7.2958 13.0338
    endloop
  endfacet
  facet normal 0 -0.684547 0.728969
    outer loop
      vertex 31.5 6.61057 12.3903
      vertex 24 7.2958 13.0338
      vertex 24 6.61057 12.3903
    endloop
  endfacet
  facet normal 0 -0.904827 -0.42578
    outer loop
      vertex 24 6.33377 7.99065
      vertex 31.5 5.93354 8.84119
      vertex 24 5.93354 8.84119
    endloop
  endfacet
  facet normal 0 -0.904827 -0.42578
    outer loop
      vertex 31.5 5.93354 8.84119
      vertex 24 6.33377 7.99065
      vertex 31.5 6.33377 7.99065
    endloop
  endfacet
  facet normal 0 -0.125333 -0.992115
    outer loop
      vertex 24 8.56741 6.36781
      vertex 31.5 9.5 6.25
      vertex 31.5 8.56741 6.36781
    endloop
  endfacet
  facet normal -0 -0.125333 -0.992115
    outer loop
      vertex 31.5 9.5 6.25
      vertex 24 8.56741 6.36781
      vertex 24 9.5 6.25
    endloop
  endfacet
  facet normal 0 -0.998027 0.0627904
    outer loop
      vertex 24 5.7574 9.76453
      vertex 31.5 5.81642 10.7027
      vertex 24 5.81642 10.7027
    endloop
  endfacet
  facet normal 0 -0.998027 0.0627904
    outer loop
      vertex 31.5 5.81642 10.7027
      vertex 24 5.7574 9.76453
      vertex 31.5 5.7574 9.76453
    endloop
  endfacet
  facet normal -1 0 0
    outer loop
      vertex 24 13.0665 8.84119
      vertex 24 13.1836 10.7027
      vertex 24 13.2426 9.76453
    endloop
  endfacet
  facet normal -1 0 0
    outer loop
      vertex 24 13.0665 8.84119
      vertex 24 12.8931 11.5967
      vertex 24 13.1836 10.7027
    endloop
  endfacet
  facet normal -1 0 0
    outer loop
      vertex 24 12.6662 7.99065
      vertex 24 12.8931 11.5967
      vertex 24 13.0665 8.84119
    endloop
  endfacet
  facet normal -1 0 0
    outer loop
      vertex 24 12.6662 7.99065
      vertex 24 12.3894 12.3903
      vertex 24 12.8931 11.5967
    endloop
  endfacet
  facet normal -1 0 0
    outer loop
      vertex 24 12.0671 7.26637
      vertex 24 12.3894 12.3903
      vertex 24 12.6662 7.99065
    endloop
  endfacet
  facet normal -1 0 0
    outer loop
      vertex 24 12.0671 7.26637
      vertex 24 11.7042 13.0338
      vertex 24 12.3894 12.3903
    endloop
  endfacet
  facet normal -1 0 0
    outer loop
      vertex 24 11.3066 6.71385
      vertex 24 11.7042 13.0338
      vertex 24 12.0671 7.26637
    endloop
  endfacet
  facet normal -1 0 0
    outer loop
      vertex 24 11.3066 6.71385
      vertex 24 10.8805 13.4867
      vertex 24 11.7042 13.0338
    endloop
  endfacet
  facet normal -1 0 0
    outer loop
      vertex 24 10.4326 6.36781
      vertex 24 10.8805 13.4867
      vertex 24 11.3066 6.71385
    endloop
  endfacet
  facet normal -1 0 0
    outer loop
      vertex 24 10.4326 6.36781
      vertex 24 9.97 13.7204
      vertex 24 10.8805 13.4867
    endloop
  endfacet
  facet normal -1 0 0
    outer loop
      vertex 24 9.5 6.25
      vertex 24 9.97 13.7204
      vertex 24 10.4326 6.36781
    endloop
  endfacet
  facet normal -1 0 0
    outer loop
      vertex 24 9.5 6.25
      vertex 24 9.03 13.7204
      vertex 24 9.97 13.7204
    endloop
  endfacet
  facet normal -1 0 0
    outer loop
      vertex 24 8.56741 6.36781
      vertex 24 9.03 13.7204
      vertex 24 9.5 6.25
    endloop
  endfacet
  facet normal -1 0 0
    outer loop
      vertex 24 8.56741 6.36781
      vertex 24 8.11953 13.4867
      vertex 24 9.03 13.7204
    endloop
  endfacet
  facet normal -1 0 0
    outer loop
      vertex 24 7.69342 6.71385
      vertex 24 8.11953 13.4867
      vertex 24 8.56741 6.36781
    endloop
  endfacet
  facet normal -1 0 0
    outer loop
      vertex 24 7.69342 6.71385
      vertex 24 7.2958 13.0338
      vertex 24 8.11953 13.4867
    endloop
  endfacet
  facet normal -1 0 0
    outer loop
      vertex 24 6.93295 7.26637
      vertex 24 7.2958 13.0338
      vertex 24 7.69342 6.71385
    endloop
  endfacet
  facet normal -1 0 0
    outer loop
      vertex 24 6.93295 7.26637
      vertex 24 6.61057 12.3903
      vertex 24 7.2958 13.0338
    endloop
  endfacet
  facet normal -1 0 0
    outer loop
      vertex 24 6.33377 7.99065
      vertex 24 6.61057 12.3903
      vertex 24 6.93295 7.26637
    endloop
  endfacet
  facet normal -1 0 0
    outer loop
      vertex 24 6.33377 7.99065
      vertex 24 6.1069 11.5967
      vertex 24 6.61057 12.3903
    endloop
  endfacet
  facet normal -1 0 0
    outer loop
      vertex 24 5.93354 8.84119
      vertex 24 6.1069 11.5967
      vertex 24 6.33377 7.99065
    endloop
  endfacet
  facet normal -1 0 0
    outer loop
      vertex 24 5.93354 8.84119
      vertex 24 5.81642 10.7027
      vertex 24 6.1069 11.5967
    endloop
  endfacet
  facet normal -1 0 -0
    outer loop
      vertex 24 5.81642 10.7027
      vertex 24 5.93354 8.84119
      vertex 24 5.7574 9.76453
    endloop
  endfacet
  facet normal 0 -0.844328 0.535826
    outer loop
      vertex 24 6.1069 11.5967
      vertex 31.5 6.61057 12.3903
      vertex 24 6.61057 12.3903
    endloop
  endfacet
  facet normal 0 -0.844328 0.535826
    outer loop
      vertex 31.5 6.61057 12.3903
      vertex 24 6.1069 11.5967
      vertex 31.5 6.1069 11.5967
    endloop
  endfacet
  facet normal 0 -0.951056 0.309017
    outer loop
      vertex 24 5.81642 10.7027
      vertex 31.5 6.1069 11.5967
      vertex 24 6.1069 11.5967
    endloop
  endfacet
  facet normal 0 -0.951056 0.309017
    outer loop
      vertex 31.5 6.1069 11.5967
      vertex 24 5.81642 10.7027
      vertex 31.5 5.81642 10.7027
    endloop
  endfacet
  facet normal 0 -0.481753 0.876307
    outer loop
      vertex 24 8.11953 13.4867
      vertex 31.5 7.2958 13.0338
      vertex 31.5 8.11953 13.4867
    endloop
  endfacet
  facet normal 0 -0.481753 0.876307
    outer loop
      vertex 31.5 7.2958 13.0338
      vertex 24 8.11953 13.4867
      vertex 24 7.2958 13.0338
    endloop
  endfacet
  facet normal 0 -0.24869 0.968583
    outer loop
      vertex 24 9.03 13.7204
      vertex 31.5 8.11953 13.4867
      vertex 31.5 9.03 13.7204
    endloop
  endfacet
  facet normal 0 -0.24869 0.968583
    outer loop
      vertex 31.5 8.11953 13.4867
      vertex 24 9.03 13.7204
      vertex 24 8.11953 13.4867
    endloop
  endfacet
  facet normal 0 -0.770513 -0.637424
    outer loop
      vertex 24 6.93295 7.26637
      vertex 31.5 6.33377 7.99065
      vertex 24 6.33377 7.99065
    endloop
  endfacet
  facet normal 0 -0.770513 -0.637424
    outer loop
      vertex 31.5 6.33377 7.99065
      vertex 24 6.93295 7.26637
      vertex 31.5 6.93295 7.26637
    endloop
  endfacet
endsolid OpenSCAD_Model
